<?xml version="1.0" encoding="UTF-8"?>
<svg version="1.1" xmlns="http://www.w3.org/2000/svg" width="500" height="500">
<path d="M0 0 C165 0 330 0 500 0 C500 165 500 330 500 500 C335 500 170 500 0 500 C0 335 0 170 0 0 Z " fill="#010101" transform="translate(0,0)"/>
<path d="M0 0 C0.66 0 1.32 0 2 0 C-1.83636325 35.58731696 -16.45542875 71.48511231 -30.55981445 104.27294922 C-32.93614967 109.89388756 -35.01346771 114.84525441 -35 121 C-33.82816346 123.81782239 -33.82816346 123.81782239 -31.75 126.1875 C-30.63818359 127.59128906 -30.63818359 127.59128906 -29.50390625 129.0234375 C-28.26447266 130.49683594 -28.26447266 130.49683594 -27 132 C-26.5757373 132.50692383 -26.15147461 133.01384766 -25.71435547 133.53613281 C-23.91398218 135.68425219 -22.10584015 137.82513808 -20.28027344 139.9519043 C-16.90732321 143.88489373 -13.67710926 147.90768342 -10.5 152 C-6.7300476 156.843587 -2.88803068 161.61471286 1.0625 166.3125 C1.52785156 166.87001953 1.99320313 167.42753906 2.47265625 168.00195312 C4.88859706 170.91904414 4.88859706 170.91904414 8 173 C8.27070313 172.41992188 8.54140625 171.83984375 8.8203125 171.2421875 C13.18400504 162.94828181 20.12205778 157.78067666 29 155 C42.31620129 153.09963863 54.93254401 156.11419184 66 163.875 C67.68912875 165.22231097 69.35836073 166.59521415 71 168 C71.96486328 168.78117187 71.96486328 168.78117187 72.94921875 169.578125 C76.95485319 173.14268958 79.63489958 177.39237406 82.3125 182 C82.65047607 182.58152832 82.98845215 183.16305664 83.33666992 183.76220703 C87.39068697 191.06949832 88.36265115 197.68771054 88.375 205.875 C88.39949219 206.72191406 88.42398438 207.56882812 88.44921875 208.44140625 C88.48918635 217.1410197 85.51686367 224.08856141 79.64453125 230.49609375 C71.07215286 238.33544215 60.38267684 237.70135077 49.47021484 237.21777344 C39.27548374 236.31900885 31.25089523 230.85015491 24 224 C23.32582031 223.36707031 22.65164062 222.73414063 21.95703125 222.08203125 C16.80844537 216.76901948 13.40101997 210.69095413 9.78344727 204.30444336 C6.76268901 199.06017577 3.41359012 194.67709358 -0.796875 190.3046875 C-3.11214973 187.88268024 -5.21046334 185.35864261 -7.3125 182.75 C-10.75665382 178.49122893 -14.2895358 174.32660205 -17.875 170.1875 C-22.47580337 164.86635401 -26.87043134 159.41649857 -31.18237305 153.85961914 C-34.63027158 149.42860273 -38.22035175 145.15374313 -42 141 C-43.9427699 141.24964396 -43.9427699 141.24964396 -46 142 C-47.58017238 144.59911572 -48.88471784 147.07518476 -50.16015625 149.8203125 C-50.54650742 150.62247192 -50.93285858 151.42463135 -51.33091736 152.25109863 C-52.58818108 154.86955664 -53.82523884 157.49703969 -55.0625 160.125 C-55.92379221 161.92690969 -56.78642632 163.72817857 -57.65039062 165.52880859 C-59.74896547 169.9102996 -61.83242896 174.29872904 -63.9085083 178.69091797 C-67.49663546 186.281704 -71.09633938 193.86719647 -74.75390625 201.42480469 C-75.62017692 203.21505215 -76.48182218 205.00754215 -77.33984375 206.80175781 C-84.40285332 221.46300502 -91.39609434 234.18171307 -107 241 C-107.85980469 241.37769531 -108.71960938 241.75539063 -109.60546875 242.14453125 C-119.95833706 246.4722443 -130.21138489 247.59620504 -141 244 C-147.86206673 240.93657735 -153.8698476 235.59366954 -157.07641602 228.67871094 C-160.45888579 218.86838624 -159.78073026 204.54684947 -155.59179688 195.10644531 C-147.85105558 180.20515111 -135.71756125 169.84278006 -120 164 C-110.09252796 161.47488132 -99.99674422 162.11984723 -91 167 C-88.9659094 168.28072371 -86.95597184 169.60287726 -85 171 C-83.67538541 171.6838263 -82.34346486 172.3539935 -81 173 C-76.76650748 166.64976121 -73.51584414 160.02784321 -70.34326172 153.09277344 C-69.50678913 151.26483623 -68.66233079 149.44076683 -67.81640625 147.6171875 C-66.18933841 144.0874074 -64.58707361 140.54792903 -63 137 C-62.49855469 135.88173828 -61.99710937 134.76347656 -61.48046875 133.61132812 C-61.02285156 132.55880859 -60.56523438 131.50628906 -60.09375 130.421875 C-59.68833984 129.4947168 -59.28292969 128.56755859 -58.86523438 127.61230469 C-57.94175438 124.82414555 -57.65167537 122.91277584 -58 120 C-58.99257334 117.99066731 -58.99257334 117.99066731 -60.5 116.1640625 C-61.04906006 115.4419458 -61.59812012 114.7198291 -62.16381836 113.97583008 C-63.07272827 112.81216919 -63.07272827 112.81216919 -64 111.625 C-65.29556358 109.91472295 -66.5884235 108.20239526 -67.87890625 106.48828125 C-68.55711426 105.59061035 -69.23532227 104.69293945 -69.93408203 103.76806641 C-84.68773604 84.00005303 -97.88590702 63.15215368 -110.125 41.75 C-110.64537842 40.84636719 -111.16575684 39.94273437 -111.7019043 39.01171875 C-115.30584642 32.61099499 -118.7349148 26.00677562 -121 19 C-120.67 18.34 -120.34 17.68 -120 17 C-114.6109185 22.66125733 -109.7575357 28.5282733 -105.125 34.8125 C-100.48408006 41.10645169 -95.62070884 47.11949248 -90.5234375 53.046875 C-87.5809855 56.49036372 -84.75596762 60.01444688 -81.94140625 63.5625 C-79.91945301 66.10112942 -77.87027731 68.6153333 -75.8125 71.125 C-71.97475612 75.80891311 -68.13911733 80.49448902 -64.3125 85.1875 C-63.77794189 85.84057129 -63.24338379 86.49364258 -62.69262695 87.16650391 C-59.4494784 91.14812174 -56.38921157 95.19233128 -53.48120117 99.42700195 C-51.72467632 101.29238676 -50.49714939 101.62079208 -48 102 C-42.52196568 91.15849274 -37.21813326 80.24824871 -32.0625 69.25 C-31.71383881 68.50788269 -31.36517761 67.76576538 -31.00595093 67.00115967 C-26.69813061 57.83098749 -22.4373571 48.64367413 -18.31640625 39.38769531 C-14.97297748 31.89060072 -11.52093628 24.44450502 -8.0625 17 C-7.63065903 16.06960907 -7.63065903 16.06960907 -7.19009399 15.12042236 C-2.01410458 3.97250871 -2.01410458 3.97250871 0 0 Z " fill="#030303" transform="translate(173,105)"/>
<path d="M0 0 C12.92966958 0.27997316 22.94392244 5.1011668 33 13 C33.76054687 13.57234375 34.52109375 14.1446875 35.3046875 14.734375 C44.00969256 21.7827182 51.93708858 32.84284527 54 44 C54.63465862 51.60100534 53.61817377 57.57188287 50.6875 64.5625 C50.33139648 65.45251709 49.97529297 66.34253418 49.60839844 67.25952148 C48.42878283 70.18312473 47.21806035 73.09221901 46 76 C45.58250488 77.00546875 45.16500977 78.0109375 44.73486328 79.046875 C42.01793747 85.57816361 39.25091736 92.08709344 36.46191406 98.58789062 C34.99624053 102.00877461 33.54009939 105.43358359 32.0859375 108.859375 C26.80930848 121.26665455 21.43290813 133.62581799 15.9375 145.9375 C15.65964661 146.56250397 15.38179321 147.18750793 15.09552002 147.83145142 C14.30545508 149.60664127 13.51024813 151.3795399 12.71484375 153.15234375 C12.26230225 154.16288818 11.80976074 155.17343262 11.34350586 156.21459961 C10.03900682 158.91912979 8.58738051 161.45302482 7 164 C-19.02167497 165.80634874 -38.16666074 157.48274452 -61 146 C-60.505 144.02 -60.505 144.02 -60 142 C-55.60394509 142.65823002 -51.80801917 144.26623669 -47.79296875 146.08984375 C-46.38739149 146.71554353 -44.98179182 147.34119298 -43.57617188 147.96679688 C-41.38347572 148.95011812 -39.19176259 149.93557977 -37.00073242 150.92260742 C-34.87138496 151.87967413 -32.73860711 152.8287629 -30.60546875 153.77734375 C-29.96248337 154.07011703 -29.31949799 154.36289032 -28.6570282 154.66453552 C-24.17760915 156.6526128 -19.78139026 157.91667746 -15 159 C-18.10071727 156.47695822 -21.22197142 154.86626102 -24.875 153.2578125 C-26.02613281 152.74863281 -27.17726562 152.23945313 -28.36328125 151.71484375 C-29.56339844 151.19019531 -30.76351562 150.66554687 -32 150.125 C-33.75376953 149.34962891 -33.75376953 149.34962891 -35.54296875 148.55859375 C-42.98991409 145.27730929 -50.47548091 142.09904072 -58 139 C-57.505 137.02 -57.505 137.02 -57 135 C-48.03723354 137.32551804 -39.66576303 140.97319116 -31.1875 144.625 C-28.43331756 145.81022361 -25.67645083 146.98888696 -22.91796875 148.1640625 C-21.10462036 148.94450928 -21.10462036 148.94450928 -19.25463867 149.74072266 C-16.4650517 150.82006326 -13.9445237 151.54036364 -11 152 C-11 151.01 -11 150.02 -11 149 C-11.55320419 148.82490402 -12.10640839 148.64980804 -12.67637634 148.46940613 C-18.03649042 146.73372817 -23.17771753 144.72976901 -28.31640625 142.42578125 C-29.42930275 141.9327375 -29.42930275 141.9327375 -30.56468201 141.42973328 C-32.89902273 140.39450954 -35.23078453 139.35362122 -37.5625 138.3125 C-39.15933698 137.60313681 -40.75634083 136.89414914 -42.35351562 136.18554688 C-46.23761623 134.46135853 -50.11941729 132.73209057 -54 131 C-54 129.68 -54 128.36 -54 127 C-50.13327951 127.64106853 -46.81208649 128.79136987 -43.2109375 130.328125 C-42.10363281 130.79863281 -40.99632812 131.26914063 -39.85546875 131.75390625 C-38.13263672 132.49447266 -38.13263672 132.49447266 -36.375 133.25 C-34.68697266 133.96736328 -34.68697266 133.96736328 -32.96484375 134.69921875 C-26.70338909 137.37029016 -20.48968394 140.11938964 -14.32666016 143.01074219 C-12.21892228 143.90691783 -10.23477061 144.52171913 -8 145 C-8 144.01 -8 143.02 -8 142 C-8.83192871 141.74025391 -9.66385742 141.48050781 -10.52099609 141.21289062 C-14.34090169 139.88115091 -17.99215534 138.28003064 -21.6640625 136.59375 C-22.3785556 136.26838257 -23.09304871 135.94301514 -23.82919312 135.60778809 C-26.09576291 134.57468247 -28.36035589 133.53731888 -30.625 132.5 C-32.15352668 131.80312402 -33.68217142 131.10650691 -35.2109375 130.41015625 C-36.67458578 129.74242115 -38.13813102 129.07446013 -39.6015625 128.40625 C-40.28392975 128.09473999 -40.966297 127.78322998 -41.66934204 127.46228027 C-44.80622259 126.02500538 -47.92829773 124.57243063 -51 123 C-51 122.01 -51 121.02 -51 120 C-45.45973289 120.62753835 -40.73586689 122.52421423 -35.625 124.625 C-34.75101563 124.97820312 -33.87703125 125.33140625 -32.9765625 125.6953125 C-26.59604496 128.29203475 -20.27437154 131.01558363 -14.02587891 133.91650391 C-10.68587117 135.43081817 -8.75587434 136 -5 136 C-5 135.34 -5 134.68 -5 134 C-5.5092099 133.78115646 -6.0184198 133.56231293 -6.5430603 133.33683777 C-11.83580535 131.06009034 -17.12303835 128.77090055 -22.40722656 126.47436523 C-24.38077039 125.61861091 -26.35570354 124.76605334 -28.33203125 123.91674805 C-31.17037183 122.69634709 -34.00353912 121.46458676 -36.8359375 120.23046875 C-37.72243988 119.85222458 -38.60894226 119.47398041 -39.52230835 119.08427429 C-40.753358 118.54405388 -40.753358 118.54405388 -42.00927734 117.99291992 C-42.73319672 117.67981369 -43.45711609 117.36670746 -44.20297241 117.04411316 C-46 116 -46 116 -48 113 C-44.71273543 111.88901992 -43.01265999 112.07860776 -39.83203125 113.40625 C-38.62752319 113.89919556 -38.62752319 113.89919556 -37.39868164 114.40209961 C-36.11852173 114.9455603 -36.11852173 114.9455603 -34.8125 115.5 C-33.93134521 115.86295166 -33.05019043 116.22590332 -32.14233398 116.59985352 C-29.42339948 117.72202706 -26.71115047 118.85916447 -24 120 C-21.58988939 121.00919876 -19.17909306 122.01662414 -16.76635742 123.01953125 C-15.33196708 123.61699527 -13.89970371 124.2196002 -12.4699707 124.828125 C-9.00250262 126.28176616 -5.72338021 127.4332427 -2 128 C-2 127.34 -2 126.68 -2 126 C-5.58036651 124.40313019 -9.16147085 122.8079262 -12.74298096 121.21362305 C-14.61625404 120.37889718 -16.48858707 119.54208957 -18.36083984 118.70507812 C-26.07617053 115.25893798 -26.07617053 115.25893798 -33.875 112.0078125 C-34.85605713 111.61070068 -34.85605713 111.61070068 -35.85693359 111.20556641 C-37.49598733 110.55148393 -39.14226114 109.91557349 -40.7890625 109.28125 C-43 108 -43 108 -43.8359375 105.84375 C-43.89007813 105.2353125 -43.94421875 104.626875 -44 104 C-38.65507082 104.5393767 -34.22077314 105.93045134 -29.30859375 108.125 C-28.60025894 108.43195801 -27.89192413 108.73891602 -27.16212463 109.05517578 C-24.91698093 110.02875763 -22.67686339 111.01320281 -20.4375 112 C-18.19430966 112.98614498 -15.95011663 113.96958075 -13.7021637 114.94482422 C-12.30913155 115.54931336 -10.91876013 116.15998487 -9.53160095 116.77783203 C-5.69579129 118.44409241 -2.15332365 119.49933856 2 120 C2.33 119.34 2.66 118.68 3 118 C2.16807129 117.74025391 1.33614258 117.48050781 0.47900391 117.21289062 C-3.34090169 115.88115091 -6.99215534 114.28003064 -10.6640625 112.59375 C-11.3785556 112.26838257 -12.09304871 111.94301514 -12.82919312 111.60778809 C-15.09576291 110.57468247 -17.36035589 109.53731888 -19.625 108.5 C-21.15352668 107.80312402 -22.68217142 107.10650691 -24.2109375 106.41015625 C-25.67458578 105.74242115 -27.13813102 105.07446013 -28.6015625 104.40625 C-29.62511337 103.93898499 -29.62511337 103.93898499 -30.66934204 103.46228027 C-33.80622259 102.02500538 -36.92829773 100.57243063 -40 99 C-40 97.68 -40 96.36 -40 95 C-30.97386187 97.78839507 -22.33705181 101.49695249 -13.625 105.125 C-11.29151767 106.0941149 -8.95767298 107.06234364 -6.62338257 108.0295105 C-5.17934358 108.62809004 -3.73581866 109.22791166 -2.2928772 109.82913208 C0.45320062 110.96954931 3.17790546 112.05930182 6 113 C6 112.01 6 111.02 6 110 C5.35651611 109.75072754 4.71303223 109.50145508 4.05004883 109.24462891 C0.05806629 107.61562651 -3.86763516 105.85147248 -7.80078125 104.0859375 C-8.63715622 103.71143463 -9.47353119 103.33693176 -10.33525085 102.95108032 C-12.99475135 101.7599828 -15.65363308 100.56751107 -18.3125 99.375 C-20.120402 98.56501329 -21.92834426 97.75511645 -23.73632812 96.9453125 C-28.15801923 94.96458246 -32.57915607 92.98262012 -37 91 C-36.67 89.68 -36.34 88.36 -36 87 C-31.1297913 87.68013943 -26.97421319 89.61511063 -22.5234375 91.59765625 C-21.7163736 91.95137802 -20.90930969 92.30509979 -20.07778931 92.66954041 C-16.63508948 94.17844121 -13.19748418 95.6987857 -9.75976562 97.21899414 C-7.24543165 98.32885911 -4.72831042 99.43220565 -2.2109375 100.53515625 C-1.43277679 100.88199966 -0.65461609 101.22884308 0.14712524 101.5861969 C4.41230642 103.47143648 4.41230642 103.47143648 9 104 C9.33 103.34 9.66 102.68 10 102 C9.13592529 101.72454346 8.27185059 101.44908691 7.3815918 101.1652832 C4.12698255 100.04375768 1.0360804 98.76020652 -2.10546875 97.35546875 C-3.25466797 96.84306641 -4.40386719 96.33066406 -5.58789062 95.80273438 C-6.77576172 95.26970703 -7.96363281 94.73667969 -9.1875 94.1875 C-10.94030273 93.40536133 -10.94030273 93.40536133 -12.72851562 92.60742188 C-19.83223382 89.4339259 -26.92148155 86.22928724 -34 83 C-33.67 81.68 -33.34 80.36 -33 79 C-28.37107239 79.67722525 -24.31574146 81.4421177 -20.06640625 83.30859375 C-19.31084946 83.63537613 -18.55529266 83.96215851 -17.77684021 84.29884338 C-15.37003856 85.34047328 -12.96610867 86.38852558 -10.5625 87.4375 C-8.16211898 88.48207678 -5.76113301 89.52519989 -3.35887146 90.56544495 C-1.86734725 91.21160763 -0.3769361 91.86034771 1.11216736 92.5120697 C5.02445589 94.2101063 8.92565685 95.71867229 13 97 C13 96.34 13 95.68 13 95 C11.75101929 94.60929321 11.75101929 94.60929321 10.47680664 94.21069336 C6.67265297 92.88601124 3.03105171 91.30050369 -0.62890625 89.62890625 C-1.34102768 89.30591049 -2.05314911 88.98291473 -2.78684998 88.65013123 C-4.28427344 87.96997671 -5.78101326 87.28831527 -7.27709961 86.60522461 C-9.55705884 85.56498256 -11.83987246 84.5312097 -14.12304688 83.49804688 C-15.58350919 82.83371979 -17.04380148 82.1690188 -18.50390625 81.50390625 C-19.51971519 81.04438316 -19.51971519 81.04438316 -20.55604553 80.57557678 C-24.18091267 78.91494469 -27.62685159 77.12701715 -31 75 C-30.505 73.515 -30.505 73.515 -30 72 C-25.70989668 72.66425774 -22.09168059 74.12847338 -18.125 75.87109375 C-17.47805176 76.15348404 -16.83110352 76.43587433 -16.16455078 76.7268219 C-14.10763343 77.62574627 -12.0537594 78.53138714 -10 79.4375 C-7.94562547 80.33857953 -5.89064867 81.23827019 -3.83544922 82.13746643 C-1.97001234 82.95448074 -0.10605889 83.77487958 1.7578125 84.59545898 C2.82773438 85.05895752 3.89765625 85.52245605 5 86 C5.89847656 86.38937744 6.79695313 86.77875488 7.72265625 87.17993164 C10.56391831 88.20306621 13.0045955 88.13932114 16 88 C16.33 87.34 16.66 86.68 17 86 C16.3498291 85.90775146 15.6996582 85.81550293 15.02978516 85.72045898 C10.97643152 84.7566035 7.33316456 83.13877682 3.5234375 81.47265625 C2.7163736 81.12367783 1.90930969 80.7746994 1.07778931 80.41514587 C-0.62265796 79.67859801 -2.32207175 78.93966013 -4.02050781 78.19848633 C-6.62048495 77.06446931 -9.22399535 75.93889665 -11.828125 74.81445312 C-13.48198645 74.09685091 -15.13563957 73.37876828 -16.7890625 72.66015625 C-17.56722321 72.32363541 -18.34538391 71.98711456 -19.14712524 71.64039612 C-19.87152802 71.32344284 -20.59593079 71.00648956 -21.34228516 70.67993164 C-21.97784332 70.40315079 -22.61340149 70.12636993 -23.26821899 69.84120178 C-25 69 -25 69 -28 67 C-27.505 65.515 -27.505 65.515 -27 64 C-22.69231713 64.67141353 -18.88802315 66.16401213 -14.90625 67.87109375 C-14.23710571 68.15348404 -13.56796143 68.43587433 -12.87854004 68.7268219 C-10.75046709 69.62598515 -8.62519436 70.53155698 -6.5 71.4375 C-4.37420296 72.3383963 -2.24785733 73.23798819 -0.12145996 74.13746643 C1.19795383 74.696168 2.51690834 75.25595586 3.83532715 75.81700134 C9.2778964 78.13132717 14.11563815 80.17892625 20 81 C16.87255143 77.59620304 13.1512228 76.08331724 8.97265625 74.27734375 C8.18733017 73.93119522 7.40200409 73.58504669 6.59288025 73.22840881 C4.0855906 72.12484028 1.57422752 71.03092509 -0.9375 69.9375 C-3.44471129 68.83844518 -5.95106147 67.73744951 -8.45716858 66.63587952 C-10.01560299 65.95169975 -11.57484778 65.26936215 -13.13499451 64.58909607 C-16.465197 63.13428975 -19.77464292 61.67900368 -23 60 C-22.67 58.68 -22.34 57.36 -22 56 C-18.12378211 57.53861652 -14.24908543 59.08102223 -10.375 60.625 C-9.23248779 61.0799585 -8.08997559 61.53491699 -6.9128418 62.00366211 C0.20121214 64.84756714 7.25151429 67.77892753 14.23046875 70.94140625 C17.15494278 72.05922354 19.9025864 72.59160028 23 73 C20.89463123 69.84194684 20.24212267 69.4105967 16.91748047 68.00708008 C16.07675995 67.64693314 15.23603943 67.28678619 14.36984253 66.91572571 C13.46146637 66.53748154 12.55309021 66.15923737 11.6171875 65.76953125 C10.22308151 65.1766053 10.22308151 65.1766053 8.80081177 64.57170105 C5.82907154 63.31010085 2.85218471 62.06119028 -0.125 60.8125 C-2.13967435 59.95981424 -4.15400194 59.1063087 -6.16796875 58.25195312 C-11.10799371 56.15843671 -16.05230372 54.07531635 -21 52 C-20.67 50.68 -20.34 49.36 -20 48 C-15.28498348 48.59245812 -11.43926493 49.92298745 -7.09765625 51.8359375 C-6.4568663 52.11595612 -5.81607635 52.39597473 -5.15586853 52.68447876 C-3.12189077 53.57497756 -1.09217617 54.47474625 0.9375 55.375 C2.29594721 55.97198431 3.65466902 56.56834418 5.01367188 57.1640625 C7.52641966 58.26614252 10.03711129 59.37248339 12.54663086 60.48193359 C13.68624268 60.98289551 14.82585449 61.48385742 16 62 C16.62335236 62.28385559 17.24670471 62.56771118 17.88894653 62.86016846 C20.776424 64.15212013 22.79836243 65 26 65 C26.495 63.515 26.495 63.515 27 62 C26.44638794 61.82327255 25.89277588 61.6465451 25.3223877 61.46446228 C20.00444585 59.73428633 14.85060171 57.7849545 9.71875 55.56640625 C8.60941101 55.08759254 8.60941101 55.08759254 7.47766113 54.59910583 C5.93397165 53.92995784 4.39129274 53.25847392 2.84960938 52.5847168 C1.27180026 51.89827802 -0.30899913 51.21867537 -1.89257812 50.5456543 C-4.19534214 49.56697959 -6.48889469 48.56917765 -8.78125 47.56640625 C-9.49156372 47.26835587 -10.20187744 46.97030548 -10.93371582 46.66322327 C-15.7854389 44.50143194 -15.7854389 44.50143194 -16.95117188 41.77709961 C-16.96728516 41.19065674 -16.98339844 40.60421387 -17 40 C-7.82109877 41.48482226 0.29555631 45.35529719 8.75 49.0625 C10.99046106 50.04092309 13.23187581 51.01692204 15.47589111 51.98716736 C16.8637719 52.58759305 18.24960379 53.19278477 19.63299561 53.80348206 C23.06669237 55.29258413 26.29290369 56.44180402 30 57 C30 56.01 30 55.02 30 54 C29.44679581 53.82490402 28.89359161 53.64980804 28.32362366 53.46940613 C22.96350958 51.73372817 17.82228247 49.72976901 12.68359375 47.42578125 C11.57069725 46.9327375 11.57069725 46.9327375 10.43531799 46.42973328 C8.10097727 45.39450954 5.76921547 44.35362122 3.4375 43.3125 C1.84066302 42.60313681 0.24365917 41.89414914 -1.35351562 41.18554688 C-5.23761623 39.46135853 -9.11941729 37.73209057 -13 36 C-13 34.68 -13 33.36 -13 32 C-8.03290942 32.72102928 -3.61687036 34.61951802 1 36.5 C2.29405762 37.02207031 2.29405762 37.02207031 3.61425781 37.5546875 C13.47174328 41.55585469 23.24200632 45.76305429 33 50 C32.30418681 46.77233741 32.30418681 46.77233741 29.33886719 45.5612793 C28.17000977 45.07054932 27.00115234 44.57981934 25.796875 44.07421875 C25.16324036 43.80414505 24.52960571 43.53407135 23.87677002 43.2558136 C21.83868089 42.38944324 19.79474355 41.53803041 17.75 40.6875 C15.09743374 39.57000159 12.44725958 38.44687949 9.796875 37.32421875 C8.82192078 36.91331497 8.82192078 36.91331497 7.82727051 36.49411011 C1.48253998 33.80933705 -4.76596819 30.93291923 -11 28 C-10.34 26.68 -9.68 25.36 -9 24 C-4.38870913 25.45159584 0.00400658 27.24808529 4.41015625 29.22265625 C5.82611667 29.84973403 7.24213401 30.47668332 8.65820312 31.10351562 C10.86648935 32.08478484 13.07403832 33.06765255 15.28051758 34.05297852 C17.42597388 35.00977148 19.57411803 35.96030843 21.72265625 36.91015625 C22.37798843 37.20495377 23.03332062 37.49975128 23.70851135 37.80348206 C27.11710061 39.3063064 30.31024375 40.44633835 34 41 C33.33525438 37.9327487 33.33525438 37.9327487 31.15258789 36.8684082 C29.94977173 36.33993286 29.94977173 36.33993286 28.72265625 35.80078125 C27.82434082 35.39972168 26.92602539 34.99866211 26.00048828 34.58544922 C25.03095215 34.16537598 24.06141602 33.74530273 23.0625 33.3125 C22.08007324 32.87695801 21.09764648 32.44141602 20.08544922 31.99267578 C18.05747091 31.0946599 16.02749385 30.20114508 13.99560547 29.31201172 C10.32844907 27.70587492 6.67289914 26.07443553 3.01733398 24.44213867 C-0.31855698 22.95411138 -3.65904576 21.47661928 -7 20 C-6.505 18.515 -6.505 18.515 -6 17 C-0.64592084 17.53631693 3.77509779 18.93397705 8.68359375 21.16015625 C9.38396255 21.46948593 10.08433136 21.77881561 10.80592346 22.09751892 C13.02017185 23.07770562 15.22881251 24.06985583 17.4375 25.0625 C18.94690994 25.73322289 20.45667252 26.4031528 21.96679688 27.07226562 C25.64867161 28.7057042 29.32557002 30.34988672 33 32 C31.08727278 27.54909763 28.23297486 26.19493178 24 24.1875 C23.30390625 23.84783203 22.6078125 23.50816406 21.890625 23.15820312 C13.79055166 19.28768936 5.41279351 16.11584945 -3 13 C-3 11.68 -3 10.36 -3 9 C0.51358447 7.82880518 1.0037895 8.15673389 4.24609375 9.625 C5.07826416 9.99866699 5.91043457 10.37233398 6.76782227 10.75732422 C8.08931274 11.37244873 8.08931274 11.37244873 9.4375 12 C10.33460693 12.41137207 11.23171387 12.82274414 12.15600586 13.24658203 C30.96865818 21.99814996 30.96865818 21.99814996 35 27 C35.73046875 29.015625 35.73046875 29.015625 36.1875 31.25 C36.34605469 31.97703125 36.50460938 32.7040625 36.66796875 33.453125 C37.46733671 39.58474744 36.80658212 44.73085825 34.875 50.5625 C34.65344238 51.24997314 34.43188477 51.93744629 34.20361328 52.64575195 C31.63495079 60.4132376 28.78603183 68.4967465 24.47265625 75.46875 C22.71721181 78.48606565 21.67461133 81.50533615 20.5625 84.8125 C18.93586813 89.49211962 17.21512647 93.90734122 14.8984375 98.28125 C13.4203132 101.10896606 12.23756666 104.06077919 11 107 C10.33631428 108.50132132 9.66948901 110.00125756 9 111.5 C7.81400952 114.1594938 6.64716976 116.82327057 5.5 119.5 C4.05177218 122.87919825 2.56489185 126.2384082 1.0625 129.59375 C-1.4255335 135.2284141 -3.78820364 140.90145109 -6.0625 146.625 C-6.31837891 147.26695312 -6.57425781 147.90890625 -6.83789062 148.5703125 C-7.55916249 150.37998176 -8.27960466 152.18998163 -9 154 C-9.66 155.65 -10.32 157.3 -11 159 C-5.06 159.33 0.88 159.66 7 160 C7.33 158.35 7.66 156.7 8 155 C8.86744096 152.746587 9.78976225 150.51402498 10.74609375 148.296875 C11.17003418 147.30926178 11.17003418 147.30926178 11.60253906 146.30169678 C12.54266129 144.11566533 13.48996514 141.93282754 14.4375 139.75 C15.10387916 138.20519981 15.76997017 136.66027529 16.43579102 135.11523438 C22.44013354 121.2053556 28.5347947 107.33437967 34.65600586 93.47558594 C36.42810916 89.46252052 38.18440539 85.44275826 39.93637085 81.42086792 C41.03664421 78.91659613 42.15999771 76.42344002 43.28442383 73.92993164 C48.63748499 62.16556592 48.63748499 62.16556592 49.8125 49.4375 C49.782771 48.60234863 49.75304199 47.76719727 49.72241211 46.90673828 C49.04170821 35.12860283 43.13764896 28.13764896 35 20 C34.4225 19.4225 33.845 18.845 33.25 18.25 C28.42876774 13.79963176 22.79970706 11.00725551 17 8 C21.455 11.96 21.455 11.96 26 16 C25.67 16.66 25.34 17.32 25 18 C5.65335764 6.02528906 5.65335764 6.02528906 0 0 Z " fill="#F0F0F0" transform="translate(217,87)"/>
<path d="M0 0 C0.33 0 0.66 0 1 0 C1.86961004 21.35375765 -3.03929406 40.02549763 -9.20556641 60.34765625 C-10.54261239 64.81159834 -11.7630301 69.30676146 -12.98046875 73.8046875 C-14.0844629 77.26471515 -15.40779386 80.58106825 -16.77563477 83.94384766 C-18.23523252 87.58716664 -19.63223173 91.25201256 -21.0234375 94.921875 C-21.29430679 95.63477692 -21.56517609 96.34767883 -21.84425354 97.08218384 C-22.9690752 100.04298908 -24.09306827 103.00409672 -25.21289062 105.96679688 C-26.04283952 108.16120509 -26.8762562 110.35426286 -27.7109375 112.546875 C-28.11502838 113.61440002 -28.11502838 113.61440002 -28.52728271 114.70349121 C-29.86636152 118.20187344 -31.26584111 121.64840105 -32.82128906 125.05664062 C-33.10976715 125.69402161 -33.39824524 126.33140259 -33.69546509 126.98809814 C-34.48787889 128.716485 -35.30110696 130.43528597 -36.11572266 132.15332031 C-37.2610319 134.88835713 -37.2610319 134.88835713 -36.31958008 137.17333984 C-35.03144975 138.95646493 -33.75125156 140.70418272 -32.34765625 142.3984375 C-31.82429687 143.03523437 -31.3009375 143.67203125 -30.76171875 144.328125 C-30.20097656 145.00359375 -29.64023438 145.6790625 -29.0625 146.375 C-27.87535508 147.81953475 -26.68917258 149.26486093 -25.50390625 150.7109375 C-24.91109863 151.4337793 -24.31829102 152.15662109 -23.70751953 152.90136719 C-21.26499807 155.90335668 -18.87909261 158.94767104 -16.5 162 C-12.35224422 167.30299285 -8.16372471 172.57179436 -3.9375 177.8125 C-3.37675781 178.51310547 -2.81601563 179.21371094 -2.23828125 179.93554688 C-1.71492187 180.58201172 -1.1915625 181.22847656 -0.65234375 181.89453125 C-0.18820068 182.47050049 0.27594238 183.04646973 0.75415039 183.63989258 C1.97677127 185.13733531 1.97677127 185.13733531 4 186 C4.185625 185.319375 4.37125 184.63875 4.5625 183.9375 C8.32796121 176.24286188 15.08909628 172.08971344 22.93359375 169.31640625 C35.0079071 165.79371926 46.88775249 168.64967216 57.8125 174.3125 C71.08317637 181.91828598 80.50726175 193.62578329 86 208 C88.67823963 218.40243798 89.73150514 230.48789097 84.8125 240.390625 C79.71665573 248.53289791 73.35057717 254.3856706 64.1171875 257.33984375 C50.96184236 260.12587549 38.66459368 257.29184291 27.22265625 250.54296875 C22.76484677 247.44835584 18.86648144 243.79340361 15 240 C14.45601562 239.48050781 13.91203125 238.96101562 13.3515625 238.42578125 C9.61621263 234.49437711 7.25023106 229.91819388 4.6875 225.1875 C1.44652373 219.21150252 -2.01421469 214.26789998 -6.7578125 209.34375 C-9.10697154 206.88818306 -11.24038508 204.33108004 -13.375 201.6875 C-16.65238235 197.63629127 -19.99024582 193.64850947 -23.375 189.6875 C-27.76928006 184.5348398 -31.97551068 179.25624143 -36.1315918 173.91040039 C-39.5993643 169.46536376 -43.20471269 165.17093008 -47 161 C-49.8837175 164.4766933 -51.71278372 168.33355754 -53.59765625 172.40234375 C-53.94413208 173.14023636 -54.29060791 173.87812897 -54.64758301 174.63838196 C-55.39713362 176.23509777 -56.14483947 177.8326806 -56.89089966 179.43103027 C-58.48148967 182.83386788 -60.08704274 186.22956587 -61.69187927 189.6257019 C-64.623852 195.83042324 -67.55040131 202.03763331 -70.4609375 208.25244141 C-72.43288032 212.46007206 -74.42258649 216.65890215 -76.42404175 220.85256958 C-77.17397763 222.43182739 -77.91773601 224.01403581 -78.65481567 225.59933472 C-83.02655109 234.99390442 -87.428829 242.71669951 -95 250 C-95.75297363 250.74846191 -96.50594727 251.49692383 -97.28173828 252.26806641 C-106.90178633 261.6568077 -118.23348347 265.98436838 -131.4375 266.3125 C-141.1044751 266.16836021 -148.66814111 264.14477612 -155.78125 257.28125 C-163.09948397 249.46686458 -165.73261053 241.8953866 -165.5625 231.25 C-165.55226807 230.28352539 -165.54203613 229.31705078 -165.53149414 228.32128906 C-165.0532766 212.14588546 -157.04067473 200.28221371 -145.6015625 189.2578125 C-141.68048482 185.85483518 -137.64705812 183.29484352 -133 181 C-132.2059375 180.5875 -131.411875 180.175 -130.59375 179.75 C-121.0586994 175.51219973 -109.26757626 175.34823251 -99.25 177.98828125 C-94.14909428 180.00738976 -90.8467628 182.11169549 -87 186 C-86.34 186 -85.68 186 -85 186 C-72.1850481 162.65937451 -72.1850481 162.65937451 -64 138 C-64.92030475 136.11953533 -64.92030475 136.11953533 -66.47265625 134.375 C-67.0354126 133.67906738 -67.59816895 132.98313477 -68.17797852 132.26611328 C-68.79987061 131.5182959 -69.4217627 130.77047852 -70.0625 130 C-71.36851736 128.37555087 -72.67047567 126.74783158 -73.96875 125.1171875 C-74.64035156 124.27381836 -75.31195313 123.43044922 -76.00390625 122.56152344 C-99.07767743 92.9516889 -124.89157748 56.18008376 -133 19 C-128.78150367 23.05260041 -125.07134864 27.40794127 -121.375 31.9375 C-120.75818359 32.68966797 -120.14136719 33.44183594 -119.50585938 34.21679688 C-115.33420642 39.32027718 -111.2409061 44.47963115 -107.19165039 49.68041992 C-102.89025465 55.18586066 -98.44412459 60.56834153 -93.99145508 65.95166016 C-90.2343537 70.49510742 -86.52128355 75.06911473 -82.8515625 79.68359375 C-79.27629294 84.15645208 -75.63205378 88.57324044 -72 93 C-70.49971683 94.83310162 -68.99971592 96.66643427 -67.5 98.5 C-66.76910156 99.39332031 -66.03820312 100.28664063 -65.28515625 101.20703125 C-61.5234375 105.8046875 -57.76171875 110.40234375 -54 115 C-50.73334791 112.30799661 -49.31291605 108.77470399 -47.62890625 105 C-47.31041718 104.3003009 -46.9919281 103.60060181 -46.66378784 102.87969971 C-45.62341915 100.58939529 -44.59287356 98.29481624 -43.5625 96 C-42.84368587 94.41220594 -42.12436192 92.82464259 -41.40454102 91.23730469 C-36.5722494 80.56427502 -31.79059897 69.86768511 -27.07055664 59.14453125 C-24.38866682 53.0619557 -21.62617337 47.02159736 -18.80429077 41.00297546 C-14.99995186 32.88235004 -11.28552171 24.72063377 -7.5625 16.5625 C-6.82362393 14.94463578 -6.08469192 13.32679711 -5.34570312 11.70898438 C-3.56316005 7.80628242 -1.78136392 3.9032403 0 0 Z M-4 17 C-10.65206064 30.64452924 -17.12087295 44.35692503 -23.375 58.1875 C-28.36263116 69.21307775 -33.38839863 80.2187751 -38.5 91.1875 C-39.05091309 92.37303467 -39.60182617 93.55856934 -40.16943359 94.7800293 C-43.97468306 102.92598367 -47.94390122 110.97673864 -52 119 C-56.95513963 117.26458802 -59.25828041 114.63894154 -62.3125 110.5 C-63.28479136 109.22237848 -64.25744961 107.94503609 -65.23046875 106.66796875 C-65.70274902 106.04067871 -66.1750293 105.41338867 -66.66162109 104.76708984 C-68.44234344 102.41596464 -70.27764831 100.11150882 -72.125 97.8125 C-72.75792969 97.02359375 -73.39085938 96.2346875 -74.04296875 95.421875 C-77.67298968 90.92963353 -81.33618294 86.46468585 -85 82 C-88.00333076 78.3360475 -91.00253278 74.6687507 -94 71 C-94.4954834 70.39494629 -94.9909668 69.78989258 -95.50146484 69.16650391 C-101.21981106 62.18089558 -106.90903265 55.18569295 -112.375 48 C-116.06722201 43.15546687 -119.89473861 38.49947523 -124 34 C-125.3406586 36.09376074 -125.3406586 36.09376074 -124.05859375 38.8515625 C-123.53213917 40.11526015 -122.99026991 41.37258969 -122.4375 42.625 C-122.13013916 43.32157715 -121.82277832 44.0181543 -121.50610352 44.73583984 C-107.13754381 76.09710667 -85.81767026 104.61705816 -65.32177734 132.18505859 C-62.4810707 136.08565208 -61.69208977 137.87356559 -62.45419312 142.72961426 C-63.46273601 146.92483693 -65.27757432 150.72019179 -67.11328125 154.609375 C-67.72951607 155.94322235 -67.72951607 155.94322235 -68.35820007 157.30401611 C-69.22453315 159.1721491 -70.09636217 161.03774221 -70.97338867 162.90087891 C-72.31190396 165.74873186 -73.6287346 168.60589683 -74.94335938 171.46484375 C-75.79039431 173.28444699 -76.63865979 175.10347803 -77.48828125 176.921875 C-78.07601067 178.19850006 -78.07601067 178.19850006 -78.6756134 179.50091553 C-80.65010553 183.6647003 -82.38817724 186.9881802 -86 190 C-86.61746094 189.52949219 -87.23492187 189.05898438 -87.87109375 188.57421875 C-98.14322398 181.02256137 -106.18055051 178.94634662 -119 180 C-132.3070494 182.28120847 -145.43583476 190.77945028 -153.27294922 201.78808594 C-159.51252849 211.52704416 -162.3610885 219.30073346 -162.375 230.8125 C-162.39949219 231.86759766 -162.42398438 232.92269531 -162.44921875 234.00976562 C-162.47850024 241.84256527 -161.06503485 246.94247768 -156.359375 253.171875 C-149.01065801 260.37789846 -142.04577258 262.90212671 -131.8125 263.25 C-117.03141975 263.06974292 -105.13680216 256.36569769 -95 246 C-90.64497395 241.35509192 -87.49414592 236.70436607 -84.71484375 230.98828125 C-84.33665497 230.23025208 -83.95846619 229.4722229 -83.56881714 228.69122314 C-82.34806689 226.23660268 -81.14245048 223.77490953 -79.9375 221.3125 C-79.09190566 219.60317904 -78.24579068 217.89411555 -77.39916992 216.18530273 C-71.83633433 204.91973745 -66.47552377 193.56978759 -61.24902344 182.14477539 C-57.47296827 173.91448357 -53.44243935 165.89170495 -49 158 C-44.24441147 158.84359012 -42.18359931 161.85230001 -39.25 165.4375 C-38.71705322 166.07421631 -38.18410645 166.71093262 -37.63500977 167.36694336 C-34.04371774 171.67464848 -30.53168685 176.04496063 -27.0546875 180.4453125 C-24.60811575 183.48724772 -22.09166252 186.46418341 -19.5625 189.4375 C-15.37887236 194.35683685 -11.24708128 199.31242901 -7.18359375 204.33203125 C-5.72030441 206.11991428 -4.23281779 207.88824698 -2.72265625 209.63671875 C1.42099167 214.48868256 4.85913744 219.31842342 7.875 224.9375 C15.11875579 238.24198613 25.88505319 248.7317252 40.55566406 253.40893555 C44.72530843 254.41719654 48.79215294 254.43381121 53.0625 254.375 C53.90876953 254.38660156 54.75503906 254.39820313 55.62695312 254.41015625 C63.74678161 254.37259344 70.30824728 252.37344813 76.39453125 246.81640625 C82.68242081 239.70237062 84.19677483 232.54303472 84.25 223.375 C84.270625 222.51003906 84.29125 221.64507812 84.3125 220.75390625 C84.38964005 207.89080373 78.5548859 196.4499875 69.75 187.1875 C58.70896146 176.89247758 46.10795147 171.2448014 30.88769531 171.39526367 C21.07724919 171.9038042 14.31176521 176.20860343 7.75 183.25 C4.88257584 186.23610405 4.88257584 186.23610405 4 190 C-0.29841447 186.62624446 -3.71467645 183.12896145 -7 178.75 C-7.95507747 177.50500917 -8.91220768 176.26159109 -9.87109375 175.01953125 C-10.37495605 174.36678223 -10.87881836 173.7140332 -11.39794922 173.04150391 C-14.21659171 169.44968914 -17.14438883 165.94857516 -20.0625 162.4375 C-39.02003752 139.56110505 -39.02003752 139.56110505 -38.95703125 134.65234375 C-38.06213168 128.95270118 -35.69929783 123.75472926 -33.48205566 118.46325684 C-32.09650729 115.14871178 -30.74986125 111.81843098 -29.40234375 108.48828125 C-29.12117706 107.79439301 -28.84001038 107.10050476 -28.55032349 106.3855896 C-9.79471998 62.90716377 -9.79471998 62.90716377 -2 17 C-2.66 17 -3.32 17 -4 17 Z " fill="#E8E8E8" transform="translate(177,88)"/>
<path d="M0 0 C8.29359125 2.67635378 16.32062693 5.83606169 24.35791016 9.19555664 C25.95561234 9.85808613 27.55758066 10.5104179 29.16357422 11.15258789 C31.51038109 12.09202832 33.84145567 13.0636928 36.171875 14.04296875 C36.88341736 14.32037399 37.59495972 14.59777924 38.32806396 14.8835907 C43.95097227 17.31287638 46.19532248 20.67654381 49 26 C50.20527064 27.91859408 51.41322556 29.83550705 52.625 31.75 C53.19476563 32.65234375 53.76453125 33.5546875 54.3515625 34.484375 C55.90402133 36.9966555 55.90402133 36.9966555 57.7734375 38.953125 C59.55541855 41.92687681 58.74951059 43.6619966 58 47 C57.22423151 49.13146072 56.38186293 51.23940381 55.48828125 53.32421875 C54.97716797 54.51853516 54.46605469 55.71285156 53.93945312 56.94335938 C53.67140869 57.55977295 53.40336426 58.17618652 53.12719727 58.8112793 C52.3238054 60.66146404 51.53322105 62.51672099 50.74414062 64.37304688 C40.12063507 89.02010896 40.12063507 89.02010896 26.41796875 95.15625 C20.62407494 97.12708632 15.07495997 97.34898706 9 97 C12.27288617 94.81807589 15.47743225 93.82888476 19.1875 92.6875 C28.92532068 89.53070201 35.79637064 86.07229622 41 77 C43.18793539 72.47148257 45.1620782 67.87967743 47.07373047 63.22900391 C48.03509235 60.91555268 49.03174137 58.61971518 50.03515625 56.32421875 C50.69078561 54.79977206 51.34575176 53.27503994 52 51.75 C52.47264282 50.67794312 52.47264282 50.67794312 52.95483398 49.58422852 C54.49645844 45.92215734 55.32905421 43.76913695 54 40 C52.26030633 37.38980879 52.26030633 37.38980879 50.125 34.8125 C49.42632812 33.93207031 48.72765625 33.05164063 48.0078125 32.14453125 C46.1042856 29.77009239 46.1042856 29.77009239 43 29 C42.62875 30.7325 42.62875 30.7325 42.25 32.5 C41.31687202 36.25236571 39.93171718 39.45427227 38.09765625 42.84765625 C35.4075992 48.12246564 33.33205599 53.67545941 31.1875 59.1875 C21.83588285 82.75898112 21.83588285 82.75898112 14.4375 86.1875 C13.2309375 86.5896875 13.2309375 86.5896875 12 87 C11.41476563 87.52078125 10.82953125 88.0415625 10.2265625 88.578125 C7.20456216 90.50796381 5.44173762 90.05318011 1.9375 89.5625 C-2.82037433 88.77439414 -2.82037433 88.77439414 -7 91 C-10.63 90.67 -14.26 90.34 -18 90 C-10.74 91.98 -3.48 93.96 4 96 C4 96.33 4 96.66 4 97 C-10.37067761 97.83442644 -21.97107566 93.73800954 -34 86 C-34.66 85.01 -35.32 84.02 -36 83 C-29.0390128 83.48526113 -22.28061062 84.62312548 -15.44726562 85.98364258 C-12.57398967 86.54983461 -9.93744036 87 -7 87 C-8.0372522 86.57702637 -8.0372522 86.57702637 -9.09545898 86.14550781 C-12.21617715 84.86265389 -15.32670343 83.55671809 -18.4375 82.25 C-20.07041992 81.58484375 -20.07041992 81.58484375 -21.73632812 80.90625 C-23.28803711 80.24882812 -23.28803711 80.24882812 -24.87109375 79.578125 C-26.30859985 78.98112793 -26.30859985 78.98112793 -27.77514648 78.37207031 C-30 77 -30 77 -30.82055664 74.83886719 C-30.87977295 74.23204102 -30.93898926 73.62521484 -31 73 C-27.29348722 71.76449574 -26.58902922 72.36273486 -23.140625 73.984375 C-21.71363281 74.64566406 -21.71363281 74.64566406 -20.2578125 75.3203125 C-19.26523438 75.79210937 -18.27265625 76.26390625 -17.25 76.75 C-15.29713836 77.66202246 -13.34401894 78.57349319 -11.390625 79.484375 C-10.4612915 79.91903076 -9.53195801 80.35368652 -8.57446289 80.80151367 C-1.8306347 84.08595503 -1.8306347 84.08595503 5.4375 85.6875 C6.613125 85.790625 7.78875 85.89375 9 86 C6.40461909 82.90947398 3.477803 81.72817507 -0.20703125 80.1875 C-1.11155281 79.80501099 -1.11155281 79.80501099 -2.03434753 79.41479492 C-3.95757358 78.60294251 -5.88476306 77.80107483 -7.8125 77 C-9.72869985 76.19709463 -11.64399194 75.39209453 -13.55851746 74.58520508 C-15.30277191 73.85111785 -17.04939514 73.12266655 -18.79614258 72.39453125 C-21.92429853 71.0329503 -24.96359794 69.55416106 -28 68 C-28 67.01 -28 66.02 -28 65 C-22.63515199 65.53787398 -18.19843414 66.94712417 -13.2734375 69.16015625 C-12.56273102 69.46948593 -11.85202454 69.77881561 -11.11978149 70.09751892 C-8.10472684 71.40994936 -5.09853003 72.74212598 -2.09179688 74.07348633 C0.11531567 75.04731047 2.326957 76.01024059 4.5390625 76.97265625 C5.21313141 77.27575211 5.88720032 77.57884796 6.58169556 77.89112854 C10.19310504 79.46015231 13.05016226 80.3674819 17 80 C17.33 79.34 17.66 78.68 18 78 C17.34604248 77.90847656 16.69208496 77.81695312 16.01831055 77.72265625 C12.01100288 76.76321027 8.45286859 75.13187008 4.70703125 73.4375 C3.91979172 73.0861499 3.13255219 72.7347998 2.32145691 72.37280273 C-0.18370047 71.25331543 -2.68558634 70.12671509 -5.1875 69 C-6.88195596 68.24172812 -8.57661531 67.48391058 -10.27148438 66.7265625 C-22.40016074 61.29991963 -22.40016074 61.29991963 -25 60 C-24.67 59.01 -24.34 58.02 -24 57 C-14.80544644 58.48903869 -6.6618209 62.35905747 1.8125 66.0625 C4.06363495 67.0400077 6.31571963 68.01521697 8.56925964 68.98716736 C9.96316959 69.58899189 11.35559562 70.19426865 12.74629211 70.80348206 C15.7935096 72.12482034 18.73363783 73.35085893 22 74 C18.31888945 69.51685978 13.52657647 67.61497671 8.375 65.25 C7.45307861 64.81896973 6.53115723 64.38793945 5.58129883 63.94384766 C-3.22631449 59.8451433 -12.09888706 55.89084058 -21 52 C-21 51.01 -21 50.02 -21 49 C-15.53002193 49.55491242 -11.08771089 50.95774437 -6.0546875 53.125 C-5.32178497 53.43195801 -4.58888245 53.73891602 -3.83377075 54.05517578 C-1.51085062 55.02909095 0.80732567 56.01367347 3.125 57 C5.45030453 57.98506165 7.77656142 58.96765482 10.10519409 59.94482422 C11.54860048 60.55094155 12.99006086 61.16172072 14.42922974 61.77783203 C17.92968122 63.25195458 21.23737659 64.4324687 25 65 C25 64.34 25 63.68 25 63 C21.334472 61.31001897 17.66753425 59.62312258 14 57.9375 C12.91251465 57.43742432 11.8250293 56.93734863 10.70458984 56.42211914 C3.72566568 53.22228602 -3.27293591 50.08079545 -10.3515625 47.10717773 C-13.02694763 45.9646865 -14.92018498 45.07981502 -17 43 C-17 42.01 -17 41.02 -17 40 C-8.19197876 42.26971925 -0.032722 45.88341641 8.25 49.5625 C10.26003142 50.45119892 12.27079584 51.3381517 14.28289795 52.22215271 C16.0980706 53.02021768 17.91092601 53.82354715 19.72363281 54.62719727 C22.78148955 55.90844379 25.84097861 56.99820568 29 58 C28.30465862 54.79190007 28.30465862 54.79190007 25.43066406 53.5612793 C24.30370117 53.07054932 23.17673828 52.57981934 22.015625 52.07421875 C21.4041864 51.80414505 20.7927478 51.53407135 20.16278076 51.2558136 C18.19609817 50.38962436 16.223408 49.5382399 14.25 48.6875 C12.96700789 48.12665657 11.6844506 47.56481733 10.40234375 47.00195312 C8.49360736 46.16412042 6.58458923 45.32703642 4.67370605 44.49411011 C-1.59525279 41.75781499 -7.80209669 38.89371004 -14 36 C-14 35.01 -14 34.02 -14 33 C-8.34919679 33.55297245 -3.77421335 35.09611769 1.41796875 37.34375 C2.19763504 37.67290405 2.97730133 38.00205811 3.78059387 38.34118652 C6.2529376 39.38637228 8.7203766 40.44255807 11.1875 41.5 C13.66608566 42.55554682 16.14564451 43.6087097 18.62654114 44.65881348 C20.16508363 45.31074452 21.7021725 45.96611965 23.2375946 46.62536621 C26.46660474 47.99964508 29.58143743 49.21320457 33 50 C33 49.01 33 48.02 33 47 C31.85273438 46.65066406 30.70546875 46.30132812 29.5234375 45.94140625 C22.77946654 43.69209514 16.31254269 40.76765461 9.81396484 37.90209961 C7.61130083 36.93146326 5.40549048 35.96826296 3.19921875 35.00585938 C1.79147594 34.38845552 0.38391706 33.77063209 -1.0234375 33.15234375 C-1.67968109 32.86584457 -2.33592468 32.5793454 -3.01205444 32.28416443 C-5.86527734 31.02200021 -8.39470541 29.73686306 -11 28 C-10.67 27.01 -10.34 26.02 -10 25 C-1.03723354 27.32551804 7.33423697 30.97319116 15.8125 34.625 C18.56668244 35.81022361 21.32354917 36.98888696 24.08203125 38.1640625 C25.29093018 38.68436035 26.4998291 39.2046582 27.74536133 39.74072266 C30.5349483 40.82006326 33.0554763 41.54036364 36 42 C36 41.01 36 40.02 36 39 C35.17330811 38.74025391 34.34661621 38.48050781 33.49487305 38.21289062 C29.59268597 36.85864226 25.85621528 35.26536466 22.08203125 33.59375 C21.34297043 33.26838257 20.60390961 32.94301514 19.842453 32.60778809 C18.28964318 31.92329137 16.73743141 31.23743647 15.18579102 30.55029297 C12.81121433 29.49943103 10.43407655 28.45453076 8.05664062 27.41015625 C6.54411375 26.74254327 5.0317386 26.07458642 3.51953125 25.40625 C2.81012894 25.09473999 2.10072662 24.78322998 1.36982727 24.46228027 C-1.60402357 23.14112247 -4.28466658 21.81022228 -7 20 C-7 18.68 -7 17.36 -7 16 C1.5323238 18.64511222 9.61414464 22.21050654 17.77709961 25.81152344 C25.08000788 29.0260889 32.27434797 31.96804768 40 34 C40 33.01 40 32.02 40 31 C38.19208984 30.44119141 38.19208984 30.44119141 36.34765625 29.87109375 C29.85629401 27.7056129 23.67247857 24.86738625 17.4375 22.0625 C16.25736328 21.53720703 15.07722656 21.01191406 13.86132812 20.47070312 C7.83561639 17.7764985 1.87311348 15.0127838 -4 12 C-3.67 11.01 -3.34 10.02 -3 9 C5.96276646 11.32551804 14.33423697 14.97319116 22.8125 18.625 C25.56668244 19.81022361 28.32354917 20.98888696 31.08203125 22.1640625 C32.29093018 22.68436035 33.4998291 23.2046582 34.74536133 23.74072266 C37.5349483 24.82006326 40.0554763 25.54036364 43 26 C43 25.01 43 24.02 43 23 C42.12690186 22.72003174 41.25380371 22.44006348 40.35424805 22.15161133 C37.26321242 21.09036851 34.31919779 19.89594008 31.33203125 18.57421875 C30.27306641 18.10693359 29.21410156 17.63964844 28.12304688 17.15820312 C27.03056641 16.67287109 25.93808594 16.18753906 24.8125 15.6875 C23.73935547 15.21376953 22.66621094 14.74003906 21.56054688 14.25195312 C19.42085491 13.30572516 17.28423794 12.35251073 15.15087891 11.39208984 C13.04350803 10.46103229 10.92009024 9.5655121 8.78271484 8.70556641 C7.78578613 8.2935498 6.78885742 7.8815332 5.76171875 7.45703125 C4.42113403 6.92493042 4.42113403 6.92493042 3.0534668 6.38208008 C1 5 1 5 0.20239258 2.34643555 C0.13560303 1.57211182 0.06881348 0.79778809 0 0 Z " fill="#EFEFEF" transform="translate(129,292)"/>
<path d="M0 0 C14.341406 5.51397973 26.30714556 16.05875774 33 30 C38.8594113 47.57823389 30.21623681 63.56305531 22.82128906 79.11962891 C19.94667696 85.19581512 17.33312029 91.38385961 14.6875 97.5625 C13.62483345 100.01873019 12.5611187 102.47448154 11.49609375 104.9296875 C10.93727885 106.21970127 10.37852407 107.50974109 9.81982422 108.79980469 C8.50966284 111.82420184 7.19862774 114.84821901 5.88720703 117.87207031 C4.03704479 122.13818904 2.18814896 126.4048548 0.33999634 130.67184448 C-0.38304907 132.34059612 -1.10653504 134.00915693 -1.83047485 135.67752075 C-2.84127528 138.00716643 -3.85050396 140.33748702 -4.859375 142.66796875 C-5.31466835 143.71581039 -5.31466835 143.71581039 -5.77915955 144.78482056 C-6.95442787 147.5032481 -8.06286867 150.18860601 -9 153 C-15.11090483 153.09945415 -20.97403427 153.0712828 -27 152 C-26.31241203 147.70257518 -24.88276905 143.82358778 -23.25 139.8125 C-22.98413086 139.15193604 -22.71826172 138.49137207 -22.44433594 137.81079102 C-20.52211629 133.10433128 -18.35754951 128.57198624 -16.015625 124.05859375 C-14.8877956 121.89029634 -14.8877956 121.89029634 -14 119 C-13.04744226 116.14232678 -11.87032932 113.67692239 -10.5 111 C-8.65162412 107.38431735 -7.20829826 103.88381582 -6 100 C-4.16082721 95.49402665 -2.11799892 91.09879742 -0.0625 86.6875 C2.10236241 82.01651608 4.12594233 77.32747082 6.00390625 72.53515625 C11.10428177 59.55420052 11.10428177 59.55420052 14.0625 54.125 C19.23708698 44.05039596 21.47481241 33.06542215 18.7421875 22.00390625 C16.62450661 16.28616785 9.0987512 13.71044726 4 11 C4.33 10.34 4.66 9.68 5 9 C6.32 9.33 7.64 9.66 9 10 C6.1310659 6.49352499 3.2682346 3.14718888 0 0 Z " fill="#050505" transform="translate(233,94)"/>
<path d="M0 0 C7.1775 -0.12375 7.1775 -0.12375 14.5 -0.25 C15.99337891 -0.28641602 17.48675781 -0.32283203 19.02539062 -0.36035156 C27.50342813 -0.43103988 33.67366789 -0.24938154 39.9765625 5.94140625 C41.89777397 9.8058278 41.51131985 13.80035966 41 18 C39.49456256 21.36931237 37.59533062 23.44828838 35 26 C35.55429687 26.31453125 36.10859375 26.6290625 36.6796875 26.953125 C37.40414062 27.38109375 38.12859375 27.8090625 38.875 28.25 C39.59429687 28.66765625 40.31359375 29.0853125 41.0546875 29.515625 C43.3143548 31.23986912 44.07251839 32.32219413 45 35 C45.30078125 37.83984375 45.30078125 37.83984375 45.3125 40.9375 C45.32925781 41.95714844 45.34601563 42.97679687 45.36328125 44.02734375 C44.73283891 49.18612463 41.88141521 52.68938114 38 56 C33.79696922 58.15136407 29.91713255 58.26418822 25.29296875 58.1953125 C24.3274408 58.19229126 24.3274408 58.19229126 23.34240723 58.18920898 C20.95736478 58.17881174 18.57242459 58.15088947 16.1875 58.125 C10.845625 58.08375 5.50375 58.0425 0 58 C0 38.86 0 19.72 0 0 Z " fill="#F9F9F9" transform="translate(302,131)"/>
<path d="M0 0 C0.886875 0.78375 1.77375 1.5675 2.6875 2.375 C3.26886719 2.79910156 3.85023437 3.22320312 4.44921875 3.66015625 C6.27366025 5.13200906 7.5091457 6.3458648 8.6875 8.375 C8.86586898 11.63849179 7.80620831 14.33915043 6.6875 17.375 C6.3265625 18.43847656 5.965625 19.50195312 5.59375 20.59765625 C1.40310469 32.29654107 -4.16357457 40.52556958 -15.45703125 46.51171875 C-22.39113971 49.31545097 -29.23734169 50.31185817 -36.3125 47.375 C-40.15806796 44.11462717 -42.07703328 41.91109236 -42.55078125 36.80859375 C-42.82797402 25.61875936 -39.72753745 18.16648022 -32.5234375 9.63671875 C-29.15107105 6.18689512 -25.52185817 3.69819768 -21.3125 1.375 C-20.19875 0.75625 -19.085 0.1375 -17.9375 -0.5 C-11.77561147 -2.41231023 -5.87897923 -2.88402755 0 0 Z " fill="#020202" transform="translate(73.3125,285.625)"/>
<path d="M0 0 C3.63 0 7.26 0 11 0 C11.33 1.65 11.66 3.3 12 5 C12.7425 4.175 13.485 3.35 14.25 2.5 C18.19540006 -0.8145127 22.13588309 -0.51983647 27.09765625 -0.46875 C30.37684641 0.06086348 32.33664629 1.03828248 35 3 C35.8125 5.1875 35.8125 5.1875 36 7 C36.66 7 37.32 7 38 7 C38.2475 6.401875 38.495 5.80375 38.75 5.1875 C40.24432698 2.57242779 41.41287537 1.54792667 44 0 C47.05859375 -0.43359375 47.05859375 -0.43359375 50.4375 -0.4375 C52.10619141 -0.46650391 52.10619141 -0.46650391 53.80859375 -0.49609375 C57.67353019 0.10469808 59.26015008 1.2504857 62 4 C64.623967 7.77980939 64.2547868 11.84758398 64.1953125 16.265625 C64.1924826 17.05902283 64.18965271 17.85242065 64.18673706 18.66986084 C64.17556779 21.19672917 64.15046944 23.72323932 64.125 26.25 C64.11496598 27.9661407 64.10584087 29.68228698 64.09765625 31.3984375 C64.07563914 35.59909574 64.04113187 39.7994872 64 44 C60.37 44 56.74 44 53 44 C52.67 32.78 52.34 21.56 52 10 C49.03 10 46.06 10 43 10 C38.87146205 14.12853795 38.85751553 15.82448958 38.68359375 21.5390625 C38.62075195 23.49199219 38.62075195 23.49199219 38.55664062 25.484375 C38.51682701 26.86458045 38.47711478 28.24478883 38.4375 29.625 C38.39430593 31.01303415 38.35069135 32.40105528 38.30664062 33.7890625 C38.20028 37.19260256 38.09825286 40.59621778 38 44 C34.37 44 30.74 44 27 44 C26.98018066 43.04109863 26.96036133 42.08219727 26.93994141 41.09423828 C26.86395855 37.54188447 26.7752307 33.98994424 26.68261719 30.43798828 C26.64429699 28.89965979 26.60944944 27.36124075 26.578125 25.82275391 C26.53253941 23.61327724 26.4745366 21.40442552 26.4140625 19.1953125 C26.40251129 18.50567413 26.39096008 17.81603577 26.37905884 17.10549927 C26.35048978 13.1079846 26.35048978 13.1079846 24 10 C19.08775215 9.44915865 19.08775215 9.44915865 14.81152344 11.58886719 C12.38920188 14.81297066 12.45856749 16.94451803 12.390625 20.953125 C12.37408875 21.61334656 12.35755249 22.27356812 12.34051514 22.95379639 C12.29211549 25.05262626 12.27068481 27.15073222 12.25 29.25 C12.22183317 30.6771196 12.19190472 32.10420559 12.16015625 33.53125 C12.08636237 37.02067609 12.03673721 40.50996472 12 44 C8.04 44 4.08 44 0 44 C0 29.48 0 14.96 0 0 Z " fill="#F6F6F6" transform="translate(278,248)"/>
<path d="M0 0 C5.57480367 2.53684886 8.71755683 6.38171786 11.1484375 11.94921875 C13.74057339 19.5824145 12.97501366 26.68741933 9.734375 33.99609375 C6.62117153 39.27579554 2.16265064 42.36873751 -3.6015625 44.26171875 C-10.01210963 45.02214227 -16.16947947 44.97920552 -21.84765625 41.671875 C-25.9402622 38.38138336 -28.94633438 34.22740311 -30.6015625 29.26171875 C-31.73078541 12.61956465 -31.73078541 12.61956465 -28.03125 6.87890625 C-20.53614474 -1.59916363 -10.83787512 -3.07561321 0 0 Z " fill="#F7F7F7" transform="translate(436.6015625,145.73828125)"/>
<path d="M0 0 C4.05564961 3.32747616 7.06391146 7.44564062 8.71875 12.41015625 C9.33169618 20.31816676 9.86371833 27.94133643 4.71875 34.41015625 C0.43379504 38.93880534 -3.7811081 41.994967 -10.11328125 42.74609375 C-16.59364145 42.83102639 -22.15260555 42.72781238 -27.28125 38.41015625 C-34.09925655 30.1450017 -35.10314185 22.98907855 -34.28125 12.41015625 C-32.67836045 6.25930902 -28.60019398 1.78115364 -23.28125 -1.58984375 C-16.13900627 -4.0926813 -6.55378244 -3.87395191 0 0 Z " fill="#F7F7F7" transform="translate(399.28125,361.58984375)"/>
<path d="M0 0 C4.05564961 3.32747616 7.06391146 7.44564062 8.71875 12.41015625 C9.33169618 20.31816676 9.86371833 27.94133643 4.71875 34.41015625 C0.43379504 38.93880534 -3.7811081 41.994967 -10.11328125 42.74609375 C-16.59364145 42.83102639 -22.15260555 42.72781238 -27.28125 38.41015625 C-34.09925655 30.1450017 -35.10314185 22.98907855 -34.28125 12.41015625 C-32.67836045 6.25930902 -28.60019398 1.78115364 -23.28125 -1.58984375 C-16.13900627 -4.0926813 -6.55378244 -3.87395191 0 0 Z " fill="#F7F7F7" transform="translate(389.28125,147.58984375)"/>
<path d="M0 0 C8.92158478 0.65717031 15.77843643 5.36482163 21.75 11.75 C28.28713897 19.64017471 31.37107227 27.88423697 31.28515625 38.046875 C30.82025683 42.86144986 28.6980161 45.44473747 25.234375 48.6171875 C20.63399832 51.46427377 15.18275998 50.70674 10 50 C2.71859085 47.47149157 -3.60350056 43.49117487 -9 38 C-9.639375 37.38125 -10.27875 36.7625 -10.9375 36.125 C-12.62864292 32.74271415 -12.5466265 29.65456837 -12 26 C-10.47806053 21.55119778 -8.5404514 17.32477693 -6.5625 13.0625 C-6.04623047 11.91458984 -5.52996094 10.76667969 -4.99804688 9.58398438 C-1.20124797 1.20124797 -1.20124797 1.20124797 0 0 Z " fill="#020202" transform="translate(214,276)"/>
<path d="M0 0 C0.99 0.66 1.98 1.32 3 2 C2.42647107 5.87132028 0.51295648 8.08172796 -2 11 C-7 9 -7 9 -9.25 7.875 C-14.04114434 6.35054498 -18.94838312 6.04925072 -23.5625 8.1875 C-25.18842795 9.95485235 -25.18842795 9.95485235 -25.5 12.5 C-25.23008081 15.05601805 -25.23008081 15.05601805 -23.45703125 16.53515625 C-19.62854712 18.81763884 -15.41951015 19.47014013 -11.10742188 20.37304688 C-5.53649873 21.63269742 -0.20215342 23.32319698 3.55859375 27.89453125 C6.44161769 34.18593016 6.94579353 39.01917373 4.5 45.625 C2.17307134 50.5123842 -1.16843561 52.7776788 -6 55 C-12.81027093 57.27009031 -21.36757552 57.11939637 -28 54.3125 C-31.78051575 52.3409787 -34.87410619 49.88544044 -38 47 C-37.5206753 42.68607774 -36.2542015 40.83430453 -33 38 C-30.21983647 39.31047356 -27.85448018 40.82078251 -25.375 42.625 C-20.70295855 45.57346062 -16.4006459 46.01142838 -11 45 C-8.22435155 43.64237846 -8.22435155 43.64237846 -7 41 C-6.66582071 37.3324787 -6.66582071 37.3324787 -7 34 C-10.52788191 32.43510297 -14.00538207 31.51089039 -17.77490234 30.70727539 C-24.6495063 29.21039871 -30.54712731 27.88580404 -35 22 C-37.62255682 17.78110425 -37.69212562 12.8363346 -37 8 C-34.29891475 2.69786969 -30.76896509 -0.64928532 -25.4375 -3.25 C-16.24872871 -5.25482283 -8.33637169 -4.33428054 0 0 Z " fill="#F7F7F7" transform="translate(281,348)"/>
<path d="M0 0 C1.78083984 -0.02513672 1.78083984 -0.02513672 3.59765625 -0.05078125 C8.39175734 0.47068238 10.76722851 2.07590996 14.04418945 5.53857422 C16.26894339 8.7981041 16.46983618 10.57856093 16.546875 14.48828125 C16.57910156 15.64521484 16.61132812 16.80214844 16.64453125 17.99414062 C16.65871094 19.19232422 16.67289062 20.39050781 16.6875 21.625 C16.71714844 22.84251953 16.74679687 24.06003906 16.77734375 25.31445312 C16.84791823 28.31386833 16.90067864 31.3125117 16.9375 34.3125 C18.2575 34.6425 19.5775 34.9725 20.9375 35.3125 C21.81640625 41.46484375 21.81640625 41.46484375 21.9375 43.3125 C20.28784831 44.96215169 18.3898645 44.56199498 16.125 44.625 C12.51483765 44.59917623 11.31744002 44.58388573 8.3125 42.4375 C6.9375 40.3125 6.9375 40.3125 6.9375 38.3125 C6.2775 38.3125 5.6175 38.3125 4.9375 38.3125 C4.73125 38.910625 4.525 39.50875 4.3125 40.125 C2.33281636 43.2744967 0.40642258 44.02771386 -3.0625 45.3125 C-7.46741383 46.04080249 -10.33992179 45.66697233 -14.375 43.6875 C-18.42502642 40.10840689 -20.17360556 36.67514963 -20.5625 31.3125 C-20.39436004 27.64844997 -19.27617019 25.25798961 -16.671875 22.55859375 C-11.9044145 18.86728331 -5.73344055 17.89174603 0.0546875 16.7421875 C2.01294695 16.37352562 2.01294695 16.37352562 3.9375 15.3125 C3.9375 13.6625 3.9375 12.0125 3.9375 10.3125 C-3.21939936 9.85405093 -7.36165714 9.89434678 -13.0625 14.3125 C-16.0625 13.3125 -16.0625 13.3125 -17.75 10.25 C-18.183125 9.280625 -18.61625 8.31125 -19.0625 7.3125 C-13.05357319 1.87585194 -8.2746468 0.0270119 0 0 Z " fill="#F6F6F6" transform="translate(313.0625,358.6875)"/>
<path d="M0 0 C3.63 0 7.26 0 11 0 C11.33 10.89 11.66 21.78 12 33 C13.7325 30.36 15.465 27.72 17.25 25 C22.55418912 17.44286099 22.55418912 17.44286099 27.46875 15.9375 C30.46152447 15.99450523 33.10330347 16.26041791 36 17 C33.9492974 21.9118625 30.24923408 25.79921502 26.90039062 29.8671875 C26.41634766 30.46789062 25.93230469 31.06859375 25.43359375 31.6875 C24.99072021 32.22761719 24.54784668 32.76773438 24.09155273 33.32421875 C22.84437231 35.23892384 22.30452585 36.73707268 22 39 C23.40095743 41.34455366 23.40095743 41.34455366 25.5 43.625 C28.48271633 47.16435001 31.32650253 50.71984989 34 54.5 C34.5775 55.3146875 35.155 56.129375 35.75 56.96875 C37 59 37 59 37 61 C32.62133962 62.20709016 29.35405502 62.39041094 25 61 C19.70894284 56.21325329 15.86793611 49.93915351 12 44 C11.67 49.61 11.34 55.22 11 61 C7.37 61 3.74 61 0 61 C0 40.87 0 20.74 0 0 Z " fill="#F9F9F9" transform="translate(459,128)"/>
<path d="M0 0 C3.63 0 7.26 0 11 0 C13.95280213 6.42169135 16.46424316 12.87690651 18.75 19.5625 C19.06582031 20.47580078 19.38164062 21.38910156 19.70703125 22.33007812 C20.47488372 24.55219664 21.23914024 26.77547959 22 29 C24.00804538 25.98793193 24.99859809 23.43267702 26.1640625 20.01953125 C26.76347656 18.27446289 26.76347656 18.27446289 27.375 16.49414062 C27.7875 15.27919922 28.2 14.06425781 28.625 12.8125 C29.04523438 11.58595703 29.46546875 10.35941406 29.8984375 9.09570312 C30.93614707 6.06511948 31.96857524 3.03272836 33 0 C36.96 0 40.92 0 45 0 C41.89990995 9.47592794 38.39451731 18.77982388 34.84008789 28.09326172 C34.07118158 30.11577359 33.30816223 32.14053326 32.55102539 34.16748047 C31.44768917 37.11974724 30.32551393 40.06424004 29.19921875 43.0078125 C28.86774338 43.9058963 28.53626801 44.8039801 28.19474792 45.72927856 C25.80193384 51.89822103 22.89016371 57.66394258 17.04277039 61.17532349 C13.85486478 62.46229676 10.62962645 62.2080532 7.25 62.125 C6.55261719 62.11597656 5.85523438 62.10695313 5.13671875 62.09765625 C3.42433042 62.07419888 1.71211996 62.03833104 0 62 C-0.125 55.375 -0.125 55.375 1 52 C1.99580078 52.08701172 1.99580078 52.08701172 3.01171875 52.17578125 C7.67826127 52.41421773 10.20627238 52.52915175 14.1875 49.875 C16.27083639 47.19576016 16.27083639 47.19576016 15.82446289 44.38574219 C14.77561982 40.07855956 13.25077488 36.07008044 11.62109375 31.953125 C11.28956802 31.10071228 10.9580423 30.24829956 10.61647034 29.37005615 C9.56224666 26.66121303 8.5004653 23.95542356 7.4375 21.25 C6.37181816 18.52997855 5.30782825 15.8093341 4.24781799 13.08709717 C3.58916825 11.39631301 2.92710411 9.70685426 2.26133728 8.01885986 C0 2.2240657 0 2.2240657 0 0 Z " fill="#F7F7F7" transform="translate(349,248)"/>
<path d="M0 0 C3.63 0 7.26 0 11 0 C11.33 1.65 11.66 3.3 12 5 C12.721875 4.175 13.44375 3.35 14.1875 2.5 C18.30842911 -0.97025609 22.71610515 -0.5173983 27.87890625 -0.46875 C32.30179253 0.19551327 34.86931958 1.54629231 37.62451172 5.08862305 C39.4142863 8.87688393 39.37628753 12.2648373 39.29296875 16.36328125 C39.28872391 17.15526413 39.28447906 17.94724701 39.28010559 18.76322937 C39.26338163 21.28000627 39.22574225 23.79596724 39.1875 26.3125 C39.17244499 28.02407693 39.15875801 29.73566649 39.14648438 31.44726562 C39.11349885 35.63182233 39.06176098 39.81577307 39 44 C35.37 44 31.74 44 28 44 C27.98018066 43.04109863 27.96036133 42.08219727 27.93994141 41.09423828 C27.86395855 37.54188447 27.7752307 33.98994424 27.68261719 30.43798828 C27.64429699 28.89965979 27.60944944 27.36124075 27.578125 25.82275391 C27.53253941 23.61327724 27.4745366 21.40442552 27.4140625 19.1953125 C27.40251129 18.50567413 27.39096008 17.81603577 27.37905884 17.10549927 C27.35048978 13.1079846 27.35048978 13.1079846 25 10 C19.34141994 9.32931472 19.34141994 9.32931472 14.5625 11.875 C11.89631026 15.50101805 11.82502683 17.83486328 11.68359375 22.3203125 C11.64169922 23.57714844 11.59980469 24.83398438 11.55664062 26.12890625 C11.51732422 27.44761719 11.47800781 28.76632812 11.4375 30.125 C11.39430488 31.46485751 11.35069027 32.80470156 11.30664062 34.14453125 C11.20029019 37.42957815 11.09826192 40.71470281 11 44 C7.37 44 3.74 44 0 44 C0 29.48 0 14.96 0 0 Z " fill="#F9F9F9" transform="translate(418,359)"/>
<path d="M0 0 C3.63 0 7.26 0 11 0 C11.33 16.83 11.66 33.66 12 51 C13.65 51.33 15.3 51.66 17 52 C17.33 54.97 17.66 57.94 18 61 C14.51556578 62.74221711 10.80112955 62.58675154 7 62 C3.92530477 60.29748281 1.59386746 58.18773492 0 55 C-0.09072287 53.2433077 -0.11754144 51.4831499 -0.11352539 49.72412109 C-0.11344986 48.6231308 -0.11337433 47.5221405 -0.11329651 46.38778687 C-0.10813522 45.19505157 -0.10297394 44.00231628 -0.09765625 42.7734375 C-0.0962413 41.55548492 -0.09482635 40.33753235 -0.09336853 39.08267212 C-0.08775639 35.1800901 -0.07520179 31.27756477 -0.0625 27.375 C-0.05748657 24.73437583 -0.05292339 22.09375076 -0.04882812 19.453125 C-0.037783 12.96872805 -0.02051018 6.48437365 0 0 Z " fill="#F7F7F7" transform="translate(342,342)"/>
<path d="M0 0 C12.92966958 0.27997316 22.94392244 5.1011668 33 13 C33.76054687 13.57234375 34.52109375 14.1446875 35.3046875 14.734375 C44.00969256 21.7827182 51.93708858 32.84284527 54 44 C54.63465862 51.60100534 53.61817377 57.57188287 50.6875 64.5625 C50.15334473 65.89752563 50.15334473 65.89752563 49.60839844 67.25952148 C48.42878283 70.18312473 47.21806035 73.09221901 46 76 C45.58250488 77.00546875 45.16500977 78.0109375 44.73486328 79.046875 C42.01793747 85.57816361 39.25091736 92.08709344 36.46191406 98.58789062 C34.99624053 102.00877461 33.54009939 105.43358359 32.0859375 108.859375 C24.93544817 125.67035513 17.52724123 142.35504884 10 159 C9.01 159 8.02 159 7 159 C8.90763067 152.95939087 11.11778617 147.1634843 13.703125 141.3828125 C14.05793945 140.57998337 14.41275391 139.77715424 14.77832031 138.94999695 C15.5382285 137.23126744 16.29986935 135.51330311 17.06311035 133.79605103 C19.09265065 129.22864604 21.10846358 124.65518893 23.125 120.08203125 C23.53413635 119.15486801 23.94327271 118.22770477 24.36480713 117.27244568 C28.38741061 108.14511478 32.33125186 98.98481829 36.25 89.8125 C36.55151978 89.10700012 36.85303955 88.40150024 37.16369629 87.67462158 C37.60328674 86.64579865 37.60328674 86.64579865 38.05175781 85.59619141 C38.33817642 84.92622131 38.62459503 84.25625122 38.91969299 83.565979 C39.4770638 82.25878819 40.0322441 80.95066086 40.58506775 79.64154053 C41.91747991 76.49232649 43.28267081 73.36736045 44.7277832 70.26806641 C47.9304582 63.25466752 49.99502998 57.49224335 49.6875 49.75 C49.65644165 48.46343506 49.65644165 48.46343506 49.62475586 47.15087891 C49.07979146 35.19806888 43.26067714 28.26067714 35 20 C34.4225 19.4225 33.845 18.845 33.25 18.25 C28.42876774 13.79963176 22.79970706 11.00725551 17 8 C21.455 11.96 21.455 11.96 26 16 C25.67 16.66 25.34 17.32 25 18 C5.65335764 6.02528906 5.65335764 6.02528906 0 0 Z " fill="#E9E9E9" transform="translate(217,87)"/>
<path d="M0 0 C5.38507212 4.03880409 10.18596078 8.14829736 11.5 14.9375 C10.08868467 27.39173882 2.82265488 39.68289515 -6.25 48.0625 C-15.25161439 54.48438344 -23.10008566 57.38234189 -34.25 56.0625 C-38.87630494 54.27270327 -42.35524531 50.70970737 -44.58984375 46.26953125 C-46.84462143 38.73136919 -45.91806012 30.59089734 -42.62890625 23.53125 C-36.6277927 12.78704671 -29.38551533 6.21407256 -18.8125 0.0625 C-12.55712883 -1.69339366 -6.25752116 -1.80505418 0 0 Z M-27.25 9.0625 C-28.4565625 9.866875 -28.4565625 9.866875 -29.6875 10.6875 C-37.48023024 17.91003047 -42.26623444 26.52753827 -42.6875 37.125 C-42.54869515 42.61473195 -41.56573536 45.70467638 -38.25 50.0625 C-33.67677298 53.11131801 -29.65759108 53.39212992 -24.33984375 52.6640625 C-12.89454423 50.20426361 -5.05985614 43.4696637 1.75 34.0625 C2.99171516 31.47739857 3.97272103 28.82387519 4.9375 26.125 C5.19724609 25.43470703 5.45699219 24.74441406 5.72460938 24.03320312 C7.88594332 18.18879071 7.88594332 18.18879071 8.75 12.0625 C7.3012738 9.69450986 7.3012738 9.69450986 5.0625 7.8125 C4.35738281 7.14734375 3.65226562 6.4821875 2.92578125 5.796875 C-6.95264867 -2.07749283 -18.0596284 2.46940733 -27.25 9.0625 Z " fill="#E7E7E7" transform="translate(73.25,281.9375)"/>
<path d="M0 0 C10.44537797 0.38686585 18.95896341 6.55100636 26 14 C31.7774905 21.45938218 34.35955517 27.46909556 34.375 36.875 C34.39949219 37.65230469 34.42398438 38.42960937 34.44921875 39.23046875 C34.47820366 44.9791421 33.31594361 48.28598287 30 53 C25.07878291 56.91688707 21.08423736 57.63959195 14.8359375 57.3828125 C4.19352201 55.946233 -4.02434907 49.74197568 -10.7734375 41.7109375 C-13.21277727 38.30829158 -14.53313135 35.52383206 -14.40087891 31.21240234 C-13.44939635 25.96128486 -10.89555157 21.13234524 -8.6875 16.3125 C-8.18798828 15.18521484 -7.68847656 14.05792969 -7.17382812 12.89648438 C-3.11420763 3.85777967 -3.11420763 3.85777967 0 0 Z M1 3 C-8.59498877 19.22381435 -8.59498877 19.22381435 -11 37 C-6.18230752 44.5276445 2.37291122 50.64596205 11 53 C16.07039224 53.65208169 21.35575866 54.24812138 26.09375 52.01171875 C29.77459379 49.09771742 31.76246213 45.90858918 32.3359375 41.30078125 C32.42866058 34.20746581 31.58371841 29.13238772 28 23 C27.56429687 22.23816406 27.12859375 21.47632813 26.6796875 20.69140625 C21.12679243 11.6945025 14.24637954 5.93013695 4 3 C3.01 3 2.02 3 1 3 Z " fill="#E7E7E7" transform="translate(213,273)"/>
<path d="M0 0 C3.15138139 1.33058325 4.58509144 2.1614172 6.109375 5.2421875 C7.83632254 10.5896654 8.17461856 16.77427087 6.23046875 22.11328125 C4.48497125 24.69760441 2.59370303 25.87051711 -0.41796875 26.52734375 C-3.12303189 26.69116589 -5.35925198 26.61111905 -8 26 C-11.05908708 23.16474856 -12.85716661 20.56414269 -13.23828125 16.390625 C-13.39079605 9.93684068 -13.4588731 5.85230307 -9 1 C-5.93570224 -0.53214888 -3.3834358 -0.22938548 0 0 Z " fill="#050505" transform="translate(430,154)"/>
<path d="M0 0 C3.0808225 2.13771357 3.79171287 2.64364686 5 6 C5.83219047 12.90798881 6.3236204 19.22457569 2 25 C-1.44788376 26.72394188 -5.22279717 26.36358102 -9 26 C-12.10983235 24.56469276 -12.78228248 23.45720678 -14.25 20.375 C-15.50127458 14.74426439 -15.7635945 9.99989035 -13.6875 4.5625 C-10.21834134 -0.70548167 -5.82583351 -1.08150324 0 0 Z " fill="#050505" transform="translate(391,368)"/>
<path d="M0 0 C3.0808225 2.13771357 3.79171287 2.64364686 5 6 C5.83219047 12.90798881 6.3236204 19.22457569 2 25 C-1.44788376 26.72394188 -5.22279717 26.36358102 -9 26 C-12.10983235 24.56469276 -12.78228248 23.45720678 -14.25 20.375 C-15.50127458 14.74426439 -15.7635945 9.99989035 -13.6875 4.5625 C-10.21834134 -0.70548167 -5.82583351 -1.08150324 0 0 Z " fill="#050505" transform="translate(381,154)"/>
<path d="M0 0 C2.89740622 -0.13539281 5.78845621 -0.23426829 8.6875 -0.3125 C9.50412109 -0.35439453 10.32074219 -0.39628906 11.16210938 -0.43945312 C15.53469944 -0.52796709 17.43300052 -0.41085876 21.078125 2.23046875 C23.12047576 5.17361243 23.59290207 6.156528 23.0625 9.625 C22.97097656 10.38039062 22.87945312 11.13578125 22.78515625 11.9140625 C21.68139333 14.84644757 20.83362749 15.60301724 18 17 C14.90617354 17.35413753 11.85864364 17.28221649 8.75 17.1875 C7.90953125 17.17396484 7.0690625 17.16042969 6.203125 17.14648438 C4.13514062 17.11123464 2.06748729 17.0574302 0 17 C0 11.39 0 5.78 0 0 Z " fill="#0A0A0A" transform="translate(313,163)"/>
<path d="M0 0 C0.33 0 0.66 0 1 0 C1.0093457 0.71542969 1.01869141 1.43085938 1.02832031 2.16796875 C1.08238845 5.44598192 1.16596471 8.72262361 1.25 12 C1.26417969 13.12535156 1.27835938 14.25070312 1.29296875 15.41015625 C1.53311227 23.62306479 2.6784279 29.25654665 8.18359375 35.4609375 C8.92738281 36.09257812 9.67117187 36.72421875 10.4375 37.375 C11.17871094 38.02210938 11.91992188 38.66921875 12.68359375 39.3359375 C19.79373569 44.44372918 28.54866542 44.61976454 37 44 C43.87234258 42.78441851 49.81158282 40.34232699 55.90625 36.98828125 C58 36 58 36 61 36 C59.51200306 40.1412927 57.24741019 41.25251811 53.375 43.125 C42.52993413 48.2074214 30.75192042 50.41447278 18.9375 46.75 C9.39151793 42.8780783 2.81360938 35.97270559 -1.20166016 26.57055664 C-2.64019848 21.93863919 -2.49705857 17.37096522 -2.375 12.5625 C-2.37371094 11.57056641 -2.37242188 10.57863281 -2.37109375 9.55664062 C-2.2818323 2.2818323 -2.2818323 2.2818323 0 0 Z " fill="#EDEDED" transform="translate(14,306)"/>
<path d="M0 0 C0.33 0.66 0.66 1.32 1 2 C1.66 2 2.32 2 3 2 C1.27341649 9.45157094 -0.76320194 16.79341471 -2.9375 24.125 C-3.17807129 24.94709961 -3.41864258 25.76919922 -3.66650391 26.61621094 C-5.14095579 31.53365962 -6.85530992 36.27426372 -8.80200195 41.02294922 C-10.31224186 44.77592771 -11.73828225 48.55803892 -13.1640625 52.34375 C-13.73425689 53.85160717 -14.3045709 55.35941911 -14.875 56.8671875 C-15.75753915 59.20116717 -16.63839752 61.53572182 -17.51464844 63.87207031 C-18.3720235 66.15619328 -19.23616655 68.43765602 -20.1015625 70.71875 C-20.36305084 71.42076538 -20.62453918 72.12278076 -20.89395142 72.84606934 C-21.99243906 75.72674097 -22.79422168 77.79422168 -25 80 C-26.485 80.495 -26.485 80.495 -28 81 C-25.68576788 73.8326209 -23.04674777 66.82905844 -20.3125 59.8125 C-12.68600488 40.05807874 -5.67730439 20.41356512 0 0 Z " fill="#E2E2E2" transform="translate(169,131)"/>
<path d="M0 0 C13.29131287 -0.36920314 13.29131287 -0.36920314 16.421875 1.26171875 C18.29665524 3.32676134 18.54178783 4.24200293 18.5 7 C18.5103125 7.680625 18.520625 8.36125 18.53125 9.0625 C18 11 18 11 16.421875 12.73828125 C11.47483531 15.31552935 5.41409068 14.15039141 0 14 C0 9.38 0 4.76 0 0 Z " fill="#010101" transform="translate(314,140)"/>
<path d="M0 0 C2.9375 2.0625 2.9375 2.0625 5 5 C5.15324031 9.36734884 4.68311389 11.24098457 1.75 14.5 C-1 16 -1 16 -3.5625 16.0625 C-6.91222608 14.60236299 -8.2016167 13.18175506 -10 10 C-9.93931504 6.48027215 -9.66225706 4.08052467 -7.8125 1.0625 C-4.99452602 -0.58941578 -3.20595185 -0.5129523 0 0 Z " fill="#E5E5E5" transform="translate(130,220)"/>
<path d="M0 0 C1.38330988 3.04328173 0.92856332 4.19137975 -0.265625 7.390625 C-5.45539378 17.92256268 -11.59864033 25.0407392 -23.0625 29 C-28.03603459 30.25336265 -32.9018421 30.2928729 -38 30 C-34.72711383 27.81807589 -31.52256775 26.82888476 -27.8125 25.6875 C-17.99608216 22.50522246 -11.38807442 19.02823185 -6 10 C-4.86120723 7.62127168 -3.81982008 5.24103116 -2.859375 2.78515625 C-2 1 -2 1 0 0 Z " fill="#E6E6E6" transform="translate(176,359)"/>
<path d="M0 0 C0.61189802 7.95467422 0.61189802 7.95467422 -1.5 11.5625 C-5.25050024 13.71903764 -7.70373586 13.48506208 -12 13 C-14.14762184 9.77856724 -14.561068 8.7404533 -14 5 C-10.70037475 1.28792159 -4.83384475 0 0 0 Z " fill="#060606" transform="translate(318,382)"/>
<path d="M0 0 C12.07661404 3.51319681 25.32837179 8.59348805 34 18 C33.01 18.495 33.01 18.495 32 19 C29.48144531 18.05957031 29.48144531 18.05957031 26.328125 16.578125 C25.18859375 16.04703125 24.0490625 15.5159375 22.875 14.96875 C21.6666143 14.39594379 20.45828141 13.82302616 19.25 13.25 C18.06921875 12.69828125 16.8884375 12.1465625 15.671875 11.578125 C10.41446594 9.11519463 5.18558655 6.61120938 0 4 C0 2.68 0 1.36 0 0 Z " fill="#ECECEC" transform="translate(133,284)"/>
<path d="M0 0 C4.13467099 1.32072281 8.08736959 2.84285456 12.0546875 4.6015625 C13.16328125 5.09140625 14.271875 5.58125 15.4140625 6.0859375 C16.55617187 6.59382812 17.69828125 7.10171875 18.875 7.625 C20.0403125 8.140625 21.205625 8.65625 22.40625 9.1875 C25.27191765 10.45591027 28.13645045 11.72681693 31 13 C31 13.99 31 14.98 31 16 C25.60456646 16.4202051 21.92367544 15.06277344 17.125 12.875 C16.42044678 12.55950195 15.71589355 12.24400391 14.98999023 11.91894531 C9.93668589 9.58835925 4.87205875 7.09567308 1 3 C0.67 2.01 0.34 1.02 0 0 Z " fill="#EFEFEF" transform="translate(160,239)"/>
<path d="M0 0 C4.13713357 3.10285017 7.95219786 6.68761698 10.75 11.0625 C10.47265625 13.34765625 10.47265625 13.34765625 9.75 15.0625 C9.234375 14.36125 8.71875 13.66 8.1875 12.9375 C4.95495999 9.12476051 1.26671595 5.32085798 -3.25 3.0625 C-9.32456899 2.71998699 -15.26553449 2.99859502 -21.25 4.0625 C-20.25 1.0625 -20.25 1.0625 -18.05859375 -0.10546875 C-12.19352067 -1.84296606 -5.85616396 -1.68927806 0 0 Z " fill="#F2F2F2" transform="translate(73.25,281.9375)"/>
<path d="M0 0 C0.91629219 2.50187919 1.09759496 3.70718364 0.24316406 6.27075195 C-0.16192383 7.08503662 -0.56701172 7.89932129 -0.984375 8.73828125 C-1.42523438 9.64126953 -1.86609375 10.54425781 -2.3203125 11.47460938 C-2.79210937 12.41111328 -3.26390625 13.34761719 -3.75 14.3125 C-4.66260274 16.16219623 -5.57408493 18.01244579 -6.484375 19.86328125 C-6.92096436 20.74056885 -7.35755371 21.61785645 -7.80737305 22.52172852 C-8.85292525 24.69437958 -9.79180588 26.87363285 -10.69140625 29.109375 C-12 32 -12 32 -14.1875 32.9375 C-14.785625 32.958125 -15.38375 32.97875 -16 33 C-14.40674275 27.85887095 -12.32586034 23.02580054 -10.125 18.125 C-9.61646484 16.97837891 -9.61646484 16.97837891 -9.09765625 15.80859375 C-2.62482923 1.31241462 -2.62482923 1.31241462 0 0 Z " fill="#E4E4E4" transform="translate(160,129)"/>
<path d="M0 0 C0.33 0.66 0.66 1.32 1 2 C1.66 2 2.32 2 3 2 C0.49463763 12.81261653 -2.75591404 23.39100469 -6 34 C-6.99 33.34 -7.98 32.68 -9 32 C-8.28881413 28.11534476 -7.28194034 24.38872081 -6.15234375 20.60546875 C-5.79462891 19.40341797 -5.43691406 18.20136719 -5.06835938 16.96289062 C-4.69517578 15.71701172 -4.32199219 14.47113281 -3.9375 13.1875 C-3.55643575 11.90956628 -3.17557429 10.63157207 -2.79492188 9.35351562 C-1.86527396 6.2350764 -0.93356291 3.117269 0 0 Z " fill="#E0E0E0" transform="translate(169,131)"/>
<path d="M0 0 C0.33 0 0.66 0 1 0 C1.01981934 0.72590332 1.03963867 1.45180664 1.06005859 2.19970703 C1.1556819 5.50848475 1.26521007 8.8166633 1.375 12.125 C1.42140625 13.83816406 1.42140625 13.83816406 1.46875 15.5859375 C1.50742188 16.69453125 1.54609375 17.803125 1.5859375 18.9453125 C1.6173584 19.96125488 1.6487793 20.97719727 1.68115234 22.02392578 C2.02591445 25.24188142 2.87550812 27.9737359 4 31 C3.01 31 2.02 31 1 31 C-2.26253479 24.84508608 -2.42558146 19.57642272 -2.3125 12.6875 C-2.31572266 11.68654297 -2.31894531 10.68558594 -2.32226562 9.65429688 C-2.26740009 2.26740009 -2.26740009 2.26740009 0 0 Z " fill="#F5F5F5" transform="translate(14,306)"/>
<path d="M0 0 C1 3 1 3 0.10375977 5.36010742 C-0.36231689 6.26607666 -0.82839355 7.1720459 -1.30859375 8.10546875 C-1.80810547 9.08837891 -2.30761719 10.07128906 -2.82226562 11.08398438 C-3.35529297 12.10814453 -3.88832031 13.13230469 -4.4375 14.1875 C-4.96666016 15.22326172 -5.49582031 16.25902344 -6.04101562 17.32617188 C-7.35185799 19.88880966 -8.67178957 22.44633287 -10 25 C-10.99 25 -11.98 25 -13 25 C-11.4496676 19.70864811 -9.09449988 15.08256687 -6.5 10.25 C-6.09652344 9.48300781 -5.69304687 8.71601563 -5.27734375 7.92578125 C-2.26051457 2.26051457 -2.26051457 2.26051457 0 0 Z " fill="#F0F0F0" transform="translate(109,286)"/>
<path d="M0 0 C6.5610804 1.73139622 12.0868637 4.19396204 17 9 C17 9.66 17 10.32 17 11 C12.76677156 10.37954537 9.47709705 8.89476441 5.6875 6.9375 C4.61886719 6.38964844 3.55023438 5.84179688 2.44921875 5.27734375 C1.23685547 4.64505859 1.23685547 4.64505859 0 4 C0 2.68 0 1.36 0 0 Z " fill="#EDEDED" transform="translate(136,276)"/>
<path d="M0 0 C2.5 0.25 2.5 0.25 4.5 2.25 C4.8125 4.75 4.8125 4.75 4.5 7.25 C1.5 9.25 1.5 9.25 -1.125 8.9375 C-3.5 8.25 -3.5 8.25 -4.5 7.25 C-4.6875 4.8125 -4.6875 4.8125 -4.5 2.25 C-2.5 0.25 -2.5 0.25 0 0 Z " fill="#090909" transform="translate(127.5,222.75)"/>
<path d="M0 0 C1.56439905 3.55877911 0.50664166 6.13994243 -0.84960938 9.63476562 C-1.12611328 10.31216797 -1.40261719 10.98957031 -1.6875 11.6875 C-1.94466797 12.37650391 -2.20183594 13.06550781 -2.46679688 13.77539062 C-4.46478946 18.76791755 -4.46478946 18.76791755 -7.20703125 19.95703125 C-7.79871094 19.97121094 -8.39039063 19.98539063 -9 20 C-7.44302683 15.11676597 -5.77808514 10.28414264 -3.9375 5.5 C-3.45603516 4.24703125 -3.45603516 4.24703125 -2.96484375 2.96875 C-2 1 -2 1 0 0 Z " fill="#E1E1E1" transform="translate(150,192)"/>
<path d="M0 0 C6.1532482 0.31827146 9.84069083 1.66794616 15 5 C14.67 5.99 14.34 6.98 14 8 C13.31292969 7.71125 12.62585938 7.4225 11.91796875 7.125 C11.01691406 6.75375 10.11585938 6.3825 9.1875 6 C8.29417969 5.62875 7.40085938 5.2575 6.48046875 4.875 C3.9668567 3.83366763 3.9668567 3.83366763 1 4 C0.34 4.66 -0.32 5.32 -1 6 C-1.66 6 -2.32 6 -3 6 C-1.125 1.125 -1.125 1.125 0 0 Z " fill="#E3E3E3" transform="translate(213,273)"/>
<path d="M0 0 C0.66 0 1.32 0 2 0 C1.61090609 6.87399242 -0.20525115 13.18002131 -4 19 C-6.16796875 19.81640625 -6.16796875 19.81640625 -8 20 C-6.59017469 15.12969439 -4.46703101 10.83630241 -2.12109375 6.3671875 C-1.10820648 4.22847779 -0.47357914 2.30936345 0 0 Z " fill="#E8E8E8" transform="translate(114,225)"/>
<path d="M0 0 C-0.3916035 5.95507399 -1.37124595 10.62819824 -4 16 C-4.99 16 -5.98 16 -7 16 C-4.81395349 5.53488372 -4.81395349 5.53488372 -3 1 C-1 0 -1 0 0 0 Z " fill="#D9D9D9" transform="translate(84,296)"/>
<path d="M0 0 C0.99 0.33 1.98 0.66 3 1 C0.69 6.61 -1.62 12.22 -4 18 C-4.99 18 -5.98 18 -7 18 C-5.06375702 11.79522136 -2.74390859 5.89174281 0 0 Z " fill="#E0E0E0" transform="translate(266,147)"/>
<path d="M0 0 C0.33 0.66 0.66 1.32 1 2 C1.66 2 2.32 2 3 2 C2.54901762 3.93922422 2.08894441 5.87633594 1.625 7.8125 C1.36976563 8.89144531 1.11453125 9.97039062 0.8515625 11.08203125 C0 14 0 14 -2 17 C-2.66 17 -3.32 17 -4 17 C-2.91103333 11.24237834 -1.70663707 5.60752181 0 0 Z " fill="#D9D9D9" transform="translate(169,131)"/>
<path d="M0 0 C-1.93254772 2.0245738 -3.63158688 3.42105792 -6 5 C-6.2502157 8.08365871 -6.2502157 8.08365871 -6 11 C-7.32 10.67 -8.64 10.34 -10 10 C-9.40140845 3.65492958 -9.40140845 3.65492958 -7.8125 1.0625 C-5.19357381 -0.47273259 -2.97085195 -0.1980568 0 0 Z " fill="#E8E8E8" transform="translate(130,220)"/>
<path d="M0 0 C0.82973374 2.38213881 1.10314333 3.65893095 0.36328125 6.10546875 C0.01652344 6.79253906 -0.33023438 7.47960937 -0.6875 8.1875 C-1.18830078 9.22970703 -1.18830078 9.22970703 -1.69921875 10.29296875 C-3.30835927 12.40466367 -4.42201159 12.63636795 -7 13 C-5.69045524 8.76916309 -4.16145284 4.872603 -2 1 C-1.34 0.67 -0.68 0.34 0 0 Z " fill="#DCDCDC" transform="translate(114,275)"/>
<path d="M0 0 C4.75481646 0.57634139 7.97048212 2.55068521 12 5 C11.01 6.485 11.01 6.485 10 8 C4.98886765 6.5682479 3.05530451 4.01554307 0 0 Z " fill="#E2E2E2" transform="translate(171,254)"/>
<path d="M0 0 C0.33 0.99 0.66 1.98 1 3 C-5.07439825 9.70459519 -5.07439825 9.70459519 -8.9375 10.9375 C-9.9584375 10.9684375 -9.9584375 10.9684375 -11 11 C-9.52202738 7.32943063 -7.52384523 5.58914217 -4.375 3.25 C-3.55773437 2.63640625 -2.74046875 2.0228125 -1.8984375 1.390625 C-0.95871094 0.70226562 -0.95871094 0.70226562 0 0 Z " fill="#EDEDED" transform="translate(258,330)"/>
<path d="M0 0 C0.99 0 1.98 0 3 0 C2.33501617 4.38889325 0.81242323 7.9811485 -1 12 C-1.99 12 -2.98 12 -4 12 C-3.52309796 10.37433394 -3.04340334 8.74948689 -2.5625 7.125 C-2.29566406 6.22007812 -2.02882813 5.31515625 -1.75390625 4.3828125 C-1 2 -1 2 0 0 Z " fill="#DBDBDB" transform="translate(17,295)"/>
<path d="M0 0 C0.93045933 2.55144824 1.08564091 3.74006478 0.22265625 6.359375 C-0.16019531 7.14828125 -0.54304688 7.9371875 -0.9375 8.75 C-1.31777344 9.54921875 -1.69804687 10.3484375 -2.08984375 11.171875 C-2.39019531 11.77515625 -2.69054687 12.3784375 -3 13 C-3.99 13 -4.98 13 -6 13 C-3.10933941 3.40546697 -3.10933941 3.40546697 0 0 Z " fill="#EBEBEB" transform="translate(260,164)"/>
<path d="M0 0 C0.96070434 2.88211302 1.10581883 4.69850044 1.0625 7.6875 C1.05347656 8.49574219 1.04445312 9.30398438 1.03515625 10.13671875 C1.02355469 10.75160156 1.01195312 11.36648438 1 12 C0.01 12 -0.98 12 -2 12 C-3.52491998 8.95016004 -3.23562548 6.3576631 -3 3 C-1.5 1.0625 -1.5 1.0625 0 0 Z " fill="#F2F2F2" transform="translate(202,299)"/>
<path d="M0 0 C1.12377697 3.30435084 0.89554742 5.0506862 -0.4375 8.25 C-0.72496094 8.95640625 -1.01242188 9.6628125 -1.30859375 10.390625 C-1.53675781 10.92171875 -1.76492187 11.4528125 -2 12 C-2.99 11.67 -3.98 11.34 -5 11 C-4.54917531 9.53932801 -4.08906463 8.08151968 -3.625 6.625 C-3.36976563 5.81289062 -3.11453125 5.00078125 -2.8515625 4.1640625 C-2 2 -2 2 0 0 Z " fill="#E9E9E9" transform="translate(154,182)"/>
<path d="M0 0 C1.26950234 3.0006419 0.98068499 4.05184556 -0.1875 7.1875 C-2 10 -2 10 -4.1875 10.875 C-5.0846875 10.936875 -5.0846875 10.936875 -6 11 C-3.76687117 3.98159509 -3.76687117 3.98159509 -2 1 C-1.34 0.67 -0.68 0.34 0 0 Z " fill="#DEDEDE" transform="translate(160,129)"/>
<path d="M0 0 C0.66 0.33 1.32 0.66 2 1 C1.52651586 5.1666604 0.95303159 7.92884715 -2 11 C-2.66 11 -3.32 11 -4 11 C-3.52269162 9.5410574 -3.04308958 8.08286504 -2.5625 6.625 C-2.29566406 5.81289063 -2.02882813 5.00078125 -1.75390625 4.1640625 C-1 2 -1 2 0 0 Z " fill="#E5E5E5" transform="translate(98,261)"/>
<path d="M0 0 C0.97533063 2.63339271 1.019574 3.92348347 0.3125 6.6875 C-1 9 -1 9 -3.08203125 9.64453125 C-3.71496094 9.76183594 -4.34789062 9.87914062 -5 10 C-4.55090939 8.51800098 -4.09043436 7.03944764 -3.625 5.5625 C-3.36976563 4.73878906 -3.11453125 3.91507813 -2.8515625 3.06640625 C-2 1 -2 1 0 0 Z " fill="#DBDBDB" transform="translate(146,202)"/>
<path d="M0 0 C0.6875 1.75 0.6875 1.75 1 4 C-0.7573799 7.07541482 -1.57945994 7.85981998 -5 9 C-3.90931332 5.22454612 -3.0916909 2.52956528 0 0 Z " fill="#DCDCDC" transform="translate(149,153)"/>
<path d="M0 0 C1 3 1 3 -0.4375 6.1875 C-1.2109375 7.5796875 -1.2109375 7.5796875 -2 9 C-2.99 9 -3.98 9 -5 9 C-3.90931332 5.22454612 -3.0916909 2.52956528 0 0 Z " fill="#F1F1F1" transform="translate(124,254)"/>
<path d="M0 0 C0.6875 1.75 0.6875 1.75 1 4 C-0.7573799 7.07541482 -1.57945994 7.85981998 -5 9 C-3.90931332 5.22454612 -3.0916909 2.52956528 0 0 Z " fill="#DADADA" transform="translate(111,236)"/>
<path d="M0 0 C1.0326802 2.78823655 1.04509293 3.8677274 0.0625 6.75 C-0.288125 7.4925 -0.63875 8.235 -1 9 C-1.99 8.67 -2.98 8.34 -4 8 C-3.50168276 4.31245243 -2.89932357 2.39509338 0 0 Z " fill="#E4E4E4" transform="translate(243,204)"/>
<path d="M0 0 C2 0.8125 2 0.8125 3.25 2.875 C3.4975 3.514375 3.745 4.15375 4 4.8125 C3.34 4.8125 2.68 4.8125 2 4.8125 C1.67 5.8025 1.34 6.7925 1 7.8125 C0.731875 7.02875 0.46375 6.245 0.1875 5.4375 C-0.84814432 2.53135077 -0.84814432 2.53135077 -4 0.8125 C-2 -0.1875 -2 -0.1875 0 0 Z " fill="#D8D8D8" transform="translate(131,221.1875)"/>
<path d="M0 0 C-0.33 2.64 -0.66 5.28 -1 8 C-1.99 8 -2.98 8 -4 8 C-3.74438677 5.6568787 -3.40729228 3.32156597 -3 1 C-1 0 -1 0 0 0 Z " fill="#E6E6E6" transform="translate(169,140)"/>
<path d="M0 0 C0.99 0 1.98 0 3 0 C2.8125 2.375 2.8125 2.375 2 5 C-0.5625 6.3125 -0.5625 6.3125 -3 7 C-1.125 2.25 -1.125 2.25 0 0 Z " fill="#DEDEDE" transform="translate(89,323)"/>
<path d="M0 0 C-0.66 2.64 -1.32 5.28 -2 8 C-2.99 7.34 -3.98 6.68 -5 6 C-4.625 3.5625 -4.625 3.5625 -4 1 C-2 0 -2 0 0 0 Z " fill="#CDCDCD" transform="translate(165,157)"/>
<path d="M0 0 C1.125 3.75 1.125 3.75 0 6 C-0.66 6 -1.32 6 -2 6 C-2.33 6.99 -2.66 7.98 -3 9 C-2.4140625 2.84765625 -2.4140625 2.84765625 -2 1 C-1.34 0.67 -0.68 0.34 0 0 Z " fill="#CECECE" transform="translate(140,217)"/>
<path d="M0 0 C0.33 0.99 0.66 1.98 1 3 C-0.3125 5.1875 -0.3125 5.1875 -2 7 C-2.66 7 -3.32 7 -4 7 C-3.39816251 4.97954558 -2.72693904 2.97888961 -2 1 C-1.34 0.67 -0.68 0.34 0 0 Z " fill="#EDEDED" transform="translate(117,269)"/>
<path d="M0 0 C0.625 1.875 0.625 1.875 1 4 C-1 6 -1 6 -4 7 C-3.39816251 4.97954558 -2.72693904 2.97888961 -2 1 C-1.34 0.67 -0.68 0.34 0 0 Z " fill="#DFDFDF" transform="translate(137,179)"/>
<path d="M0 0 C0.625 1.875 0.625 1.875 1 4 C-1 6 -1 6 -4 7 C-2.92598892 4.08482708 -2.22189824 2.22189824 0 0 Z " fill="#E2E2E2" transform="translate(182,345)"/>
<path d="M0 0 C0.33 0.99 0.66 1.98 1 3 C-0.3125 5.1875 -0.3125 5.1875 -2 7 C-2.66 7 -3.32 7 -4 7 C-2.92598892 4.08482708 -2.22189824 2.22189824 0 0 Z " fill="#EFEFEF" transform="translate(135,184)"/>
<path d="M0 0 C0.33 0.99 0.66 1.98 1 3 C-0.3125 5.1875 -0.3125 5.1875 -2 7 C-2.66 7 -3.32 7 -4 7 C-2.92598892 4.08482708 -2.22189824 2.22189824 0 0 Z " fill="#F3F3F3" transform="translate(140,173)"/>
<path d="M0 0 C0.33 0.99 0.66 1.98 1 3 C-0.3125 5.1875 -0.3125 5.1875 -2 7 C-2.66 7 -3.32 7 -4 7 C-2.92598892 4.08482708 -2.22189824 2.22189824 0 0 Z " fill="#F0F0F0" transform="translate(152,147)"/>
<path d="M0 0 C0.33 0.99 0.66 1.98 1 3 C-0.3125 5.1875 -0.3125 5.1875 -2 7 C-2.66 7 -3.32 7 -4 7 C-2.92598892 4.08482708 -2.22189824 2.22189824 0 0 Z " fill="#F2F2F2" transform="translate(163,123)"/>
<path d="M0 0 C0.33 0.99 0.66 1.98 1 3 C-0.3125 5.1875 -0.3125 5.1875 -2 7 C-2.66 7 -3.32 7 -4 7 C-2.92598892 4.08482708 -2.22189824 2.22189824 0 0 Z " fill="#F4F4F4" transform="translate(168,112)"/>
</svg>
